<svg id="Capa_1" data-name="Capa 1" xmlns="http://www.w3.org/2000/svg" width="69.61" height="59.06" viewBox="0 0 69.61 59.06"><defs><style>.cls-1{fill:#b7b1a9;}</style></defs><title>documentoHover</title><path class="cls-1" d="M0,58.93v-10H2.78A4.33,4.33,0,0,1,5,49.49a3.86,3.86,0,0,1,1.51,1.6A5,5,0,0,1,7,53.46v.92a5,5,0,0,1-.54,2.37A3.84,3.84,0,0,1,5,58.34a4.46,4.46,0,0,1-2.25.56Zm.84-9.24v8.53H2.73a3.25,3.25,0,0,0,2.52-1,4,4,0,0,0,1-2.82v-.88a3.94,3.94,0,0,0-1-2.81,3.19,3.19,0,0,0-2.47-1Z" transform="translate(0 0.01)"/><path class="cls-1" d="M8.53,55.11a4.35,4.35,0,0,1,.41-1.92,3.1,3.1,0,0,1,2.88-1.8,3,3,0,0,1,2.39,1,4,4,0,0,1,.92,2.75v.17a4.39,4.39,0,0,1-.41,1.93,3.09,3.09,0,0,1-1.17,1.32,3.2,3.2,0,0,1-1.72.46,3,3,0,0,1-2.39-1,4,4,0,0,1-.92-2.75Zm.82.23A3.36,3.36,0,0,0,10,57.52a2.33,2.33,0,0,0,3.6,0,3.47,3.47,0,0,0,.66-2.26V55.1A3.77,3.77,0,0,0,14,53.55a2.52,2.52,0,0,0-.88-1.09,2.25,2.25,0,0,0-1.3-.39,2.19,2.19,0,0,0-1.78.86,3.47,3.47,0,0,0-.73,2.25Z" transform="translate(0 0.01)"/><path class="cls-1" d="M19.55,58.36A2.16,2.16,0,0,0,21,57.88a1.7,1.7,0,0,0,.63-1.25h.79A2.32,2.32,0,0,1,22,57.86a2.66,2.66,0,0,1-1,.87A3.12,3.12,0,0,1,19.6,59a2.86,2.86,0,0,1-2.31-1,4.09,4.09,0,0,1-.85-2.72v-.25a4.62,4.62,0,0,1,.38-1.93,2.91,2.91,0,0,1,2.77-1.76,2.85,2.85,0,0,1,2,.72A2.64,2.64,0,0,1,22.43,54h-.79a2.13,2.13,0,0,0-3.78-1.13,3.62,3.62,0,0,0-.61,2.24v.24a3.54,3.54,0,0,0,.61,2.21A2,2,0,0,0,19.55,58.36Z" transform="translate(0 0.01)"/><path class="cls-1" d="M28.79,57.93A2.66,2.66,0,0,1,26.43,59a2.29,2.29,0,0,1-1.8-.69,3,3,0,0,1-.63-2V51.52h.81v4.71q0,2.11,1.71,2.11a2.1,2.1,0,0,0,2.25-1.47V51.52h.82v7.41H28.8Z" transform="translate(0 0.01)"/><path class="cls-1" d="M32.47,51.52v1.2a2.74,2.74,0,0,1,1-1,2.81,2.81,0,0,1,1.37-.33,2.07,2.07,0,0,1,2.22,1.44,2.77,2.77,0,0,1,1.06-1.06,2.93,2.93,0,0,1,1.46-.37Q42,51.4,42,54v4.93h-.82V54a2.21,2.21,0,0,0-.43-1.47,1.74,1.74,0,0,0-1.37-.48,2.18,2.18,0,0,0-1.49.57A2,2,0,0,0,37.3,54v4.91h-.82v-5A2,2,0,0,0,36,52.51,1.78,1.78,0,0,0,34.67,52a2.06,2.06,0,0,0-1.37.49,2.58,2.58,0,0,0-.82,1.31v5.09h-.82v-7.4Z" transform="translate(0 0.01)"/><path class="cls-1" d="M47,59.05a3.22,3.22,0,0,1-1.69-.46,3.17,3.17,0,0,1-1.19-1.29,4,4,0,0,1-.42-1.86v-.31a4.36,4.36,0,0,1,.41-1.92,3.3,3.3,0,0,1,1.15-1.34,2.85,2.85,0,0,1,1.6-.49A2.67,2.67,0,0,1,49,52.3a3.73,3.73,0,0,1,.79,2.51v.46H44.49v.16a3.1,3.1,0,0,0,.72,2.1,2.3,2.3,0,0,0,1.82.84,2.67,2.67,0,0,0,1.16-.24,2.57,2.57,0,0,0,.91-.77l.51.39A3,3,0,0,1,47,59.05Zm-.15-7a2,2,0,0,0-1.56.68,3.13,3.13,0,0,0-.77,1.82h4.44v-.09a2.72,2.72,0,0,0-.65-1.71,1.89,1.89,0,0,0-1.46-.67Z" transform="translate(0 0.01)"/><path class="cls-1" d="M52.14,51.52v1.26a2.92,2.92,0,0,1,1-1,2.69,2.69,0,0,1,1.37-.36,2.22,2.22,0,0,1,1.77.67,3,3,0,0,1,.59,2v4.84h-.81V54a2.26,2.26,0,0,0-.42-1.48,1.65,1.65,0,0,0-1.32-.49,2.07,2.07,0,0,0-1.34.47,2.78,2.78,0,0,0-.86,1.28v5.1h-.81v-7.4Z" transform="translate(0 0.01)"/><path class="cls-1" d="M60.3,49.62v1.89h1.53v.67H60.3v4.93a1.54,1.54,0,0,0,.22.92.86.86,0,0,0,.74.3,5,5,0,0,0,.66-.07v.66a2.66,2.66,0,0,1-.87.12,1.46,1.46,0,0,1-1.22-.49,2.3,2.3,0,0,1-.38-1.44V52.19H58.14v-.67H59.5v-1.9Z" transform="translate(0 0.01)"/><path class="cls-1" d="M63,55.11a4.34,4.34,0,0,1,.41-1.92,3.1,3.1,0,0,1,2.93-1.81,3,3,0,0,1,2.39,1,4,4,0,0,1,.92,2.75v.17a4.38,4.38,0,0,1-.41,1.93A3.09,3.09,0,0,1,68,58.55a3.2,3.2,0,0,1-1.72.46,3,3,0,0,1-2.39-1A4,4,0,0,1,63,55.26Zm.82.23a3.35,3.35,0,0,0,.69,2.18,2.33,2.33,0,0,0,3.6,0,3.48,3.48,0,0,0,.69-2.25v-.16a3.76,3.76,0,0,0-.31-1.55,2.52,2.52,0,0,0-.88-1.09,2.25,2.25,0,0,0-1.3-.39,2.19,2.19,0,0,0-1.78.86,3.48,3.48,0,0,0-.69,2.25Z" transform="translate(0 0.01)"/><g id="file"><path id="Shape" class="cls-1" d="M20.76,34.74h24A1.2,1.2,0,0,0,46,33.55s0,0,0,0V1.23A1.2,1.2,0,0,0,44.8,0H27.52a1,1,0,0,0-.29,0h-.06l-.24.09-.09.06a.8.8,0,0,0-.24.21L19.85,8.44a1.24,1.24,0,0,0-.21.33.18.18,0,0,0,0,.12.45.45,0,0,1-.06.27V33.48a1.23,1.23,0,0,0,1.2,1.26h0ZM26.3,4.58V8.11H23.36Zm-4.34,6H27.5a1.2,1.2,0,0,0,1.21-1.19s0,0,0,0V2.46H43.57V32.28H22V10.58Z" transform="translate(0 0.01)"/><path id="Shape-2" class="cls-1" d="M41.47,13.18H24.07a1.23,1.23,0,0,0,0,2.45h17.4a1.23,1.23,0,0,0,0-2.45Z" transform="translate(0 0.01)"/><path id="Shape-3" class="cls-1" d="M41.47,19.11H24.07a1.23,1.23,0,0,0,0,2.45h17.4a1.2,1.2,0,0,0,1.21-1.19s0,0,0,0a1.22,1.22,0,0,0-1.21-1.23h0Z" transform="translate(0 0.01)"/></g><path class="cls-1" d="M24.09,23.77H33A1.23,1.23,0,0,1,34.25,25h0A1.23,1.23,0,0,1,33,26.22H24.09A1.23,1.23,0,0,1,22.86,25h0A1.23,1.23,0,0,1,24.09,23.77Z" transform="translate(0 0.01)"/><path class="cls-1" d="M48.17,2.46H44.94V4.93h2V36.28H25.36V34.74H22.94v2.74a1.23,1.23,0,0,0,1.2,1.26h24a1.2,1.2,0,0,0,1.21-1.19s0,0,0,0V3.68a1.2,1.2,0,0,0-1.18-1.22Z" transform="translate(0 0.01)"/></svg>