<svg id="Capa_1" data-name="Capa 1" xmlns="http://www.w3.org/2000/svg" width="51.01" height="54.59" viewBox="0 0 51.01 54.59"><defs><style>.cls-1{fill:#0088ce;}</style></defs><title>example</title><path class="cls-1" d="M5.5,47H.84v4.06H6.19v.73H0v-10H6.14v.71H.84v3.79H5.5Z" transform="translate(0.02 0)"/><path class="cls-1" d="M10.1,47.38l2-3h1L10.59,48l2.58,3.78h-1l-2.11-3.13L8,51.79H7L9.59,48,7.08,44.39h1Z" transform="translate(0.02 0)"/><path class="cls-1" d="M19.25,51.79a3.87,3.87,0,0,1-.16-1,2.84,2.84,0,0,1-1.1.86,3.36,3.36,0,0,1-1.41.3,2.48,2.48,0,0,1-1.73-.59,1.94,1.94,0,0,1-.66-1.5,2,2,0,0,1,.9-1.71,4.32,4.32,0,0,1,2.51-.63h1.48v-.84a1.62,1.62,0,0,0-.49-1.25A2,2,0,0,0,17.16,45a2.23,2.23,0,0,0-1.42.44,1.3,1.3,0,0,0-.56,1h-.8a1.9,1.9,0,0,1,.82-1.53,3.15,3.15,0,0,1,2-.65,2.88,2.88,0,0,1,2,.62,2.22,2.22,0,0,1,.73,1.73v3.5a4.34,4.34,0,0,0,.23,1.61v0Zm-2.57-.6a2.74,2.74,0,0,0,1.47-.4,2.33,2.33,0,0,0,.94-1.06V48.1H17.62a3.66,3.66,0,0,0-1.91.45A1.34,1.34,0,0,0,15,49.79a1.32,1.32,0,0,0,.46,1A1.74,1.74,0,0,0,16.68,51.19Z" transform="translate(0.02 0)"/><path class="cls-1" d="M22.82,44.38v1.2a2.74,2.74,0,0,1,1-1,2.81,2.81,0,0,1,1.37-.33,2.07,2.07,0,0,1,2.22,1.44,2.78,2.78,0,0,1,1.06-1.06A2.93,2.93,0,0,1,30,44.24q2.38,0,2.43,2.6v5h-.82V46.9a2.21,2.21,0,0,0-.43-1.47,1.74,1.74,0,0,0-1.37-.48,2.18,2.18,0,0,0-1.49.57,2,2,0,0,0-.68,1.36v4.91H26.8v-5a2,2,0,0,0-.45-1.42A1.78,1.78,0,0,0,25,44.95a2.06,2.06,0,0,0-1.33.44,2.58,2.58,0,0,0-.82,1.31v5.09H22v-7.4Z" transform="translate(0.02 0)"/><path class="cls-1" d="M40.43,48.15a4.45,4.45,0,0,1-.77,2.74,2.44,2.44,0,0,1-2,1,2.74,2.74,0,0,1-2.32-1.07v3.77h-.81V44.38h.76v1a2.63,2.63,0,0,1,2.32-1.18,2.46,2.46,0,0,1,2.08,1A4.55,4.55,0,0,1,40.4,48ZM39.61,48A3.81,3.81,0,0,0,39,45.79,1.87,1.87,0,0,0,37.41,45a2.16,2.16,0,0,0-2.12,1.42v3.55a2.17,2.17,0,0,0,.84,1,2.42,2.42,0,0,0,1.29.33A1.86,1.86,0,0,0,39,50.45,4.14,4.14,0,0,0,39.61,48Z" transform="translate(0.02 0)"/><path class="cls-1" d="M43.16,51.79h-.82V41.27h.82Z" transform="translate(0.02 0)"/><path class="cls-1" d="M48.25,51.91a3.22,3.22,0,0,1-1.71-.46,3.17,3.17,0,0,1-1.19-1.29A4,4,0,0,1,45,48.29V48a4.36,4.36,0,0,1,.41-1.92,3.3,3.3,0,0,1,1.15-1.34,2.85,2.85,0,0,1,1.6-.49,2.67,2.67,0,0,1,2.14.92,3.73,3.73,0,0,1,.7,2.51v.46H45.75v.16a3.1,3.1,0,0,0,.72,2.1,2.3,2.3,0,0,0,1.82.84A2.67,2.67,0,0,0,49.45,51a2.57,2.57,0,0,0,.91-.77l.51.39A3,3,0,0,1,48.25,51.91Zm-.15-7a2,2,0,0,0-1.56.68,3.13,3.13,0,0,0-.77,1.82h4.44v-.09a2.72,2.72,0,0,0-.61-1.74,1.89,1.89,0,0,0-1.5-.64Z" transform="translate(0.02 0)"/><path class="cls-1" d="M7.66,12.23s16,27.52,35,0C23.63-15.29,7.66,12.23,7.66,12.23Zm3.59,0C26.31-9,39,12.23,39,12.23s-12.7,21.25-27.76,0Z" transform="translate(0.02 0)"/><path class="cls-1" d="M20.88,10.94A4.43,4.43,0,1,0,22,9l2.18,2.46Z" transform="translate(0.02 0)"/><path class="cls-1" d="M25.16,3.62A8.57,8.57,0,0,0,19.27,6l1.31,1.45a6.71,6.71,0,1,1-1.85,3.12l-1.93-.37a8.61,8.61,0,1,0,8.35-6.54Z" transform="translate(0.02 0)"/></svg>