<?xml version="1.0" encoding="utf-8"?>
<!-- Generator: Adobe Illustrator 20.1.0, SVG Export Plug-In . SVG Version: 6.00 Build 0)  -->
<svg version="1.1" id="Capa_1" xmlns="http://www.w3.org/2000/svg" xmlns:xlink="http://www.w3.org/1999/xlink" x="0px" y="0px"
	 viewBox="0 0 36 30" style="enable-background:new 0 0 36 30;" xml:space="preserve">
<style type="text/css">
	.st0{fill:#FFFFFF;}
</style>
<g id="icon-feedback">
	<path id="feed" d="M1.4,24.5h4v4c0,0.5,0.3,0.9,0.7,1.1c0.2,0.1,0.4,0.1,0.5,0.1c0.3,0,0.5-0.1,0.8-0.2l6.6-5h19.9
		c0.7,0,1.2-0.5,1.2-1.2V1.5c0-0.7-0.5-1.2-1.2-1.2H1.4c-0.7,0-1.2,0.5-1.2,1.2v21.8C0.1,24,0.7,24.5,1.4,24.5L1.4,24.5z"/>
	<path id="shape" class="st0" d="M8.7,16.6h17.8c0.7,0,1.2-0.5,1.2-1.2s-0.5-1.2-1.2-1.2H8.7c-0.7,0-1.2,0.5-1.2,1.2
		S8,16.6,8.7,16.6L8.7,16.6z"/>
	<path id="shape_1_" class="st0" d="M8.7,10.6h17.8c0.7,0,1.2-0.5,1.2-1.2c0-0.7-0.5-1.2-1.2-1.2H8.7C8,8.2,7.5,8.7,7.5,9.4
		C7.5,10.1,8,10.6,8.7,10.6L8.7,10.6z"/>
</g>
</svg>
