<svg width="35px" height="27px" viewBox="0 0 35 27" version="1.1" xmlns="http://www.w3.org/2000/svg" xmlns:xlink="http://www.w3.org/1999/xlink"><g id="menu" fill="#000000"><path d="M32.4420286,0.147754137 L2.47026381,0.147754137 C1.18894301,0.147754137 0.186170213,0.679669031 0.186170213,1.35933806 C0.186170213,2.03900709 1.18894301,2.57092199 2.47026381,2.57092199 L32.4977382,2.57092199 C33.779059,2.57092199 34.7818318,2.03900709 34.7818318,1.35933806 C34.7261222,0.679669031 33.7233494,0.147754137 32.4420286,0.147754137 L32.4420286,0.147754137 Z" id="Shape"></path><path d="M32.4420286,16.0756501 L2.47026381,16.0756501 C1.18894301,16.0756501 0.186170213,16.607565 0.186170213,17.287234 C0.186170213,17.9669031 1.18894301,18.498818 2.47026381,18.498818 L32.4977382,18.498818 C33.779059,18.498818 34.7818318,17.9669031 34.7818318,17.287234 C34.7261222,16.607565 33.7233494,16.0756501 32.4420286,16.0756501 L32.4420286,16.0756501 Z" id="Shape"></path><path d="M32.2558584,23.8297872 L2.2840936,23.8297872 C1.0027728,23.8297872 3.55271368e-15,24.3617021 3.55271368e-15,25.0413712 C3.55271368e-15,25.7210402 1.0027728,26.2529551 2.2840936,26.2529551 L32.311568,26.2529551 C33.5928888,26.2529551 34.5956616,25.7210402 34.5956616,25.0413712 C34.539952,24.3617021 33.5371792,23.8297872 32.2558584,23.8297872 L32.2558584,23.8297872 Z" id="Shape"></path><path d="M32.4420286,8.09692671 L2.47026381,8.09692671 C1.18894301,8.09692671 0.186170213,8.62884161 0.186170213,9.30851064 C0.186170213,9.98817967 1.18894301,10.5200946 2.47026381,10.5200946 L32.4977382,10.5200946 C33.779059,10.5200946 34.7818318,9.98817967 34.7818318,9.30851064 C34.7261222,8.62884161 33.7233494,8.09692671 32.4420286,8.09692671 L32.4420286,8.09692671 Z" id="Shape"></path></g></svg>