<?xml version="1.0" encoding="UTF-8" standalone="no"?>
<svg width="220px" height="300px" viewBox="0 0 220 300" version="1.1" xmlns="http://www.w3.org/2000/svg" xmlns:xlink="http://www.w3.org/1999/xlink">
    <!-- Generator: Sketch 3.8.3 (29802) - http://www.bohemiancoding.com/sketch -->
    <title>bg-card</title>
    <desc>Created with Sketch.</desc>
    <defs></defs>
    <g id="Page-1" stroke="none" stroke-width="1" fill="none" fill-rule="evenodd">
        <g id="bg-card">
            <g id="logo" transform="translate(-7.000000, 19.000000)">
                <g id="Page-1">
                    <g id="logo">
                        <rect id="Rectangle-1" fill="#FFFFFF" x="0" y="0" width="234" height="262"></rect>
                        <g id="Logo_Left_Tagline_CMYK" transform="translate(28.285714, 21.673483)">
                            <g id="Group" transform="translate(-0.000000, 0.000000)">
                                <g id="Shape" transform="translate(0.000000, 0.000000)">
                                    <path d="M89.2285715,153.250046 L89.2285715,153.250046 C97.9714285,153.250046 106.2,151.965733 113.914286,149.653968 L113.914286,149.653968 C122.4,146.828478 130.371428,140.920635 135.257143,133.471615 L135.257143,133.471615 C143.228571,121.912791 150.428572,99.3088699 150.685714,76.961811 L150.685714,76.961811 C150.428572,54.6147521 143.228571,32.0108307 135.257143,20.4520071 L135.257143,20.4520071 C130.371428,13.2598502 122.657143,7.35200706 114.171429,4.26965413 L114.171429,4.26965413 C106.457143,1.95788942 97.9714285,0.673575697 89.2285715,0.673575697 L89.2285715,0.673575697 C80.7428571,0.673575697 72.2571429,1.95788942 64.2857142,4.26965413 L64.2857142,4.26965413 C55.8,7.09514432 48.0857143,13.0029875 43.2,20.4520071 L43.2,20.4520071 C35.2285714,32.0108307 28.0285715,54.6147521 27.7714285,76.961811 L27.7714285,76.961811 C28.0285715,99.3088699 35.2285714,121.912791 43.2,133.471615 L43.2,133.471615 C48.0857143,140.663772 55.8,146.571615 64.2857142,149.653968 L64.2857142,149.653968 C72.0000001,151.965733 80.4857143,153.250046 89.2285715,153.250046 L89.2285715,153.250046 L89.2285715,153.250046 L89.2285715,153.250046 L89.2285715,153.250046 Z" fill="#6F6D5F"></path>
                                    <path d="M145.8,76.961811 C146.057143,93.9147521 140.914286,114.206909 136.028571,125.252007 C130.628571,137.838282 122.142857,145.287301 109.8,148.626517 C103.114286,150.424556 96.1714286,151.195144 88.9714285,151.195144 L88.9714285,151.195144 C81.7714286,151.195144 74.8285715,150.424556 68.1428571,148.626517 C55.8,145.287301 47.3142858,137.581419 41.9142857,125.252007 C37.0285715,114.463772 31.8857142,93.9147521 32.1428572,76.961811 L32.1428572,76.961811 C31.8857142,60.0088699 37.0285715,39.7167129 41.9142857,28.6716149 C47.3142858,16.0853404 55.8,8.63632079 68.1428571,5.29710511 C74.8285715,3.4990659 81.7714286,2.72847766 88.9714285,2.72847766 L88.9714285,2.72847766 C96.1714286,2.72847766 103.114286,3.4990659 109.8,5.29710511 C122.142857,8.63632079 130.628571,16.3422031 136.028571,28.6716149 C140.914286,39.7167129 146.057143,60.2657326 145.8,76.961811 L145.8,76.961811 L145.8,76.961811 L145.8,76.961811 L145.8,76.961811 Z" fill="#FFFFFF"></path>
                                    <path d="M89.2285715,20.7088699 C95.1428571,20.7088699 101.057143,21.4794581 106.457143,23.0206345 L106.457143,23.0206345 C112.371429,24.561811 117,28.6716149 119.314286,34.0657326 C124.457143,45.1108307 127.8,61.2931836 127.8,76.961811 L127.8,76.961811 C127.8,92.6304384 124.457143,108.812791 119.314286,119.857889 C117,125.252007 112.114286,129.361811 106.457143,130.902987 L106.457143,130.902987 C101.057143,132.444164 95.1428571,133.214752 89.2285715,133.214752 L88.9714285,133.214752 C83.0571429,133.214752 77.1428571,132.444164 71.7428571,130.902987 L71.7428571,130.902987 C65.8285715,129.361811 61.2,125.252007 58.8857144,119.857889 C53.7428571,108.812791 50.4,92.6304384 50.4,76.961811 L50.4,76.961811 C50.4,61.2931836 53.7428571,45.1108307 58.8857144,34.0657326 C61.2,28.6716149 66.0857143,24.561811 71.7428571,23.0206345 L71.7428571,23.0206345 C77.3999999,21.7363208 83.3142857,20.7088699 89.2285715,20.7088699 L89.2285715,20.7088699 L89.2285715,20.7088699 L89.2285715,20.7088699 L89.2285715,20.7088699 Z" fill="#6F6D5F"></path>
                                    <path d="M97.7142857,42.2853403 C96.9428572,41.0010266 97.4571429,42.0284776 96.6857142,40.4873012" fill="#FFFFFF"></path>
                                    <polygon fill="#FFFFFF" points="79.9714285 74.1363208 79.9714285 79.7873012 60.6857143 79.7873012 60.6857143 74.1363208"></polygon>
                                    <path d="M75.6,122.940242 C75.0857143,122.169654 75.0857143,121.655929 75.0857143,120.88534 L86.1428571,120.88534 C86.1428571,122.426517 85.3714286,123.967693 83.8285715,124.995144 C82.2857144,126.022595 79.7142857,126.279458 77.9142857,125.50887 C77.1428571,124.995144 76.1142858,123.967693 75.6,122.940242 L75.6,122.940242 L75.6,122.940242 L75.6,122.940242 Z" fill="#FFFFFF"></path>
                                    <path d="M87.6857142,118.573576 L81.7714286,118.573576 L81.7714286,115.748086 L87.6857142,115.748086 L89.4857143,113.436321 C90.5142858,114.463772 90.5142858,114.463772 91.5428571,115.748086 L97.4571429,115.748086 L97.4571429,118.573576 L91.5428571,118.573576 L91.5428571,125.50887 L87.6857142,125.50887 L87.6857142,118.573576 L87.6857142,118.573576 L87.6857142,118.573576 L87.6857142,118.573576 Z" fill="#FFFFFF"></path>
                                    <path d="M88.4571429,109.840242 C89.7428571,109.326517 91.5428571,108.812791 91.7999999,107.528478 C91.7999999,105.730438 93.0857142,104.189262 93.8571428,102.648086 C94.3714285,102.13436 94.3714285,101.620635 94.3714285,100.850046 C96.1714286,100.850046 98.2285715,102.648086 99,104.189262 C99.7714286,105.987301 99.5142858,108.299066 98.2285715,109.840242 C96.6857142,111.638282 94.6285713,112.665733 92.3142857,112.152007 C90.7714286,112.152007 89.2285715,111.381419 88.4571429,109.840242 L88.4571429,109.840242 L88.4571429,109.840242 L88.4571429,109.840242 Z" fill="#FFFFFF"></path>
                                    <path d="M74.0571429,85.1814189 C73.0285714,84.6676934 71.4857143,84.4108307 70.4571428,84.9245562 C69.4285715,85.1814189 68.3999999,86.2088699 68.3999999,87.4931836 L68.3999999,95.7127913 C68.3999999,96.2265168 68.1428571,96.4833795 67.3714286,96.4833795 C66.8571428,96.4833795 66.3428571,96.2265168 66.3428571,95.7127913 L66.3428571,87.4931836 C66.3428571,86.7225954 66.0857143,85.6951444 65.5714285,85.1814189 L61.2,86.4657326 L60.6857143,86.7225954 C61.7142858,87.4931836 62.2285714,87.4931836 62.4857143,88.7774973 L62.4857143,99.3088699 L62.4857143,99.8225954 L62.7428571,100.079458 L62.7428571,100.336321 L63.0000001,100.593184 C63.7714286,101.620635 64.8,102.13436 65.8285715,102.391223 C66.0857143,102.391223 66.8571428,102.648086 67.1142858,102.648086 C68.1428571,102.648086 69.1714287,102.648086 70.4571428,101.877497 C72.2571429,100.593184 71.7428571,98.0245562 72.0000001,94.6853403 C72.0000001,93.6578894 72.0000001,93.1441639 72.7714286,92.6304384 C73.2857142,92.1167129 74.0571429,92.1167129 74.5714285,92.3735757 C75.3428571,92.6304384 75.3428571,92.6304384 76.1142858,93.1441639 C75.8571428,89.8049483 75.8571428,85.9520071 74.0571429,85.1814189 L74.0571429,85.1814189 L74.0571429,85.1814189 L74.0571429,85.1814189 Z" fill="#FFFFFF"></path>
                                    <path d="M113.914286,98.2814189 C110.828571,95.1990658 105.428571,90.8323992 104.914286,89.03436 C104.4,87.7500463 104.657143,86.4657326 104.657143,84.9245562 C105.685714,84.1539679 106.2,83.6402423 107.485714,82.8696541 C107.485714,84.9245562 107.228571,87.2363208 108.257143,88.5206345 C110.828571,91.089262 113.142857,93.4010266 115.457143,95.7127913 C116.228571,96.7402423 117,98.0245562 116.485714,99.0520071 C116.228571,99.5657326 115.971429,100.336321 115.457143,100.850046 C114.942857,99.8225954 114.428571,99.0520071 113.914286,98.2814189 L113.914286,98.2814189 L113.914286,98.2814189 L113.914286,98.2814189 Z" fill="#FFFFFF"></path>
                                    <polygon fill="#FFFFFF" points="96.1714286 82.8696541 101.828571 82.8696541 101.828571 99.5657326 96.1714286 99.5657326 96.1714286 82.8696541 96.1714286 82.8696541"></polygon>
                                    <path d="M108.771429,84.4108307 C109.285714,83.6402423 109.542857,83.3833795 110.314286,82.8696541 L111.857143,84.6676934 L111.857143,89.2912228 L111.857143,89.2912228 C113.914286,88.2637718 113.4,85.4382817 113.4,82.8696541 C114.685714,83.897105 115.2,84.4108307 116.228571,85.4382817 C116.742857,88.2637718 115.2,89.8049483 113.914286,91.8598502 L108.771429,86.9794581 L108.771429,84.4108307 L108.771429,84.4108307 L108.771429,84.4108307 L108.771429,84.4108307 Z" fill="#FFFFFF"></path>
                                    <path d="M113.4,71.5676934 L114.171429,68.4853403 L116.742857,68.2284776 L116.742857,60.2657326 C115.714286,60.5225954 115.457143,60.5225954 114.685714,60.5225954 L114.685714,54.6147521 C113.4,54.8716149 112.114286,55.3853403 110.571429,55.6422031 L110.571429,65.6598502 L110.571429,65.6598502 C110.571429,66.1735757 109.8,66.1735757 109.542857,66.1735757 L109.285714,66.1735757 C108.771429,66.1735757 108.257143,65.9167129 108.257143,65.4029874 L108.257143,55.8990658 L104.4,56.4127913 L104.4,60.5225954 C103.114286,63.3480855 101.057143,65.9167129 99,68.4853403 C101.057143,68.7422031 101.314286,68.7422031 103.371429,68.7422031 L104.657143,71.5676934 L113.4,71.5676934 L113.4,71.5676934 L113.4,71.5676934 L113.4,71.5676934 Z" fill="#FFFFFF"></path>
                                    <path d="M68.3999999,69.5127913 C68.3999999,66.9441639 68.1428571,65.1461247 68.1428571,62.5774973 C68.9142857,62.3206345 69.6857142,62.83436 70.4571428,63.3480855 C70.4571428,66.6873012 70.4571428,66.6873012 70.2,70.0265168 L68.3999999,70.0265168 L68.3999999,69.5127913 L68.3999999,69.5127913 L68.3999999,69.5127913 L68.3999999,69.5127913 Z" fill="#FFFFFF"></path>
                                    <path d="M68.1428571,54.6147521 C67.6285714,52.0461247 67.6285714,51.789262 67.3714286,49.9912228 L65.8285715,49.9912228 L65.8285715,48.1931836 L73.0285714,48.1931836 L73.0285714,49.9912228 L71.2285713,49.9912228 L70.4571428,56.1559286 C69.6857142,55.3853403 68.9142857,54.8716149 68.1428571,54.6147521 L68.1428571,54.6147521 L68.1428571,54.6147521 L68.1428571,54.6147521 Z" fill="#FFFFFF"></path>
                                    <path d="M67.6285714,46.9088699 C65.3142857,44.3402423 65.0571429,40.4873012 65.5714285,36.8912228 L65.5714285,36.8912228 C66.0857143,38.1755365 66.8571428,39.2029874 68.1428571,39.7167129 C67.8857144,38.9461247 67.3714286,38.4323992 67.1142858,37.661811 C66.6,36.1206345 66.6,34.3225954 67.6285714,33.0382817 C68.3999999,32.0108307 69.1714287,31.7539679 70.2,31.2402423 C69.6857142,32.5245562 69.6857142,33.8088699 70.2,35.0931836 C70.9714285,34.5794581 70.9714285,34.5794581 71.4857143,34.0657326 C71.7428571,33.8088699 71.7428571,33.8088699 72.0000001,33.8088699 C73.0285714,35.8637718 74.0571429,38.689262 73.5428572,41.0010266 L73.0285714,42.0284776 C72.7714286,40.2304384 72.5142856,39.4598502 71.4857143,38.9461247 C71.2285713,39.9735757 72.0000001,40.7441639 72.0000001,42.0284776 C72.5142856,44.0833795 72.0000001,45.8814189 70.9714285,47.1657326 L67.6285714,47.1657326 L67.6285714,46.9088699 L67.6285714,46.9088699 L67.6285714,46.9088699 Z" fill="#FFFFFF"></path>
                                    <path d="M97.7142857,42.2853403 L95.1428571,45.1108307 C94.3714285,44.3402423 94.3714285,44.3402423 93.8571428,43.5696541 C95.1428571,42.2853403 95.4000001,42.0284776 96.6857142,40.4873012" fill="#FFFFFF"></path>
                                    <path d="M100.8,35.6069091 C101.314286,33.2951444 101.571429,30.4696541 104.142857,29.4422031 C105.171429,29.1853403 106.457143,29.1853403 107.228571,29.9559286 C108.257143,30.7265168 108.771429,32.0108307 108.514286,33.2951444 C107.742857,36.1206345 104.657143,36.63436 102.085714,37.1480855 L100.8,35.6069091 L100.8,35.6069091 L100.8,35.6069091 L100.8,35.6069091 Z" fill="#FFFFFF"></path>
                                    <polygon fill="#FFFFFF" points="118.285714 74.1363208 118.285714 79.7873012 98.7428571 79.7873012 98.7428571 74.1363208"></polygon>
                                    <path d="M71.2285713,112.152007 C70.4571428,108.555929 74.8285715,107.271615 75.8571428,104.189262 C76.6285714,99.3088699 76.8857143,93.9147521 80.4857143,90.061811 C80.7428571,82.6127913 83.3142857,76.1912228 88.4571429,70.797105 C88.2,69.2559286 87.4285714,67.7147521 86.9142857,66.1735757 C86.1428571,66.1735757 85.8857143,65.9167129 85.1142858,65.4029874 C84.6,64.889262 84.6,64.3755365 84.3428572,63.6049483 C82.5428572,65.9167129 80.2285715,68.4853403 77.9142857,69.7696541 C77.3999999,70.0265168 76.8857143,69.5127913 76.1142858,68.7422031 C73.0285714,66.4304384 72.5142856,61.0363208 67.8857144,61.0363208 C65.8285715,60.2657326 65.8285715,57.9539679 65.5714285,55.8990658 C66.3428571,55.3853403 67.6285714,55.3853403 68.6571429,55.6422031 C71.4857143,57.1833795 73.5428572,60.5225954 76.1142858,62.5774973 C76.8857143,63.0912228 77.3999999,63.861811 78.1714286,64.1186737 C79.9714285,62.5774973 81.5142856,61.2931836 82.5428572,58.9814189 C83.3142857,57.697105 84.8571428,56.9265168 86.4000001,56.9265168 L87.4285714,55.6422031 L86.9142857,52.3029874 C85.8857143,50.761811 84.8571428,49.4774973 84.0857143,47.6794581 C84.6,45.8814189 84.6,43.5696541 86.6571429,42.5422031 C87.9428572,41.7716149 88.9714285,43.5696541 90,42.5422031 C90.7714286,42.2853403 91.2857144,42.5422031 91.7999999,43.0559286 C92.5714287,44.3402423 93.3428572,45.6245562 93.6,47.1657326 C93.0857142,48.7069091 92.3142857,49.9912228 91.7999999,51.5323992 C91.5428571,51.789262 91.2857144,52.0461247 91.0285714,52.0461247 C91.2857144,52.5598502 91.2857144,53.3304384 91.7999999,53.8441639 C92.3142857,53.8441639 92.8285715,54.1010266 93.6,53.8441639 C94.1142858,52.3029874 95.9142856,51.5323992 97.4571429,51.0186737 L100.8,48.9637718 C100.285714,46.3951444 101.828571,44.3402423 101.057143,42.0284776 C99.2571428,41.2578894 98.7428571,39.2029874 98.2285715,37.4049483 C98.4857143,36.3774973 99,35.3500463 99.7714286,34.3225954 L99.7714286,34.3225954 C101.571429,36.3774973 103.114286,38.4323992 103.628572,41.0010266 C103.885714,44.3402423 104.142857,47.6794581 104.142857,51.0186737 C102.342857,52.8167129 100.285714,53.8441639 98.2285715,55.1284776 L96.6857142,57.9539679 C96.4285714,60.7794581 95.6571429,63.6049483 95.1428571,66.1735757 C96.4285714,69.5127913 97.9714285,74.1363208 96.6857142,77.2186737 C95.9142856,79.0167129 94.1142858,80.0441639 92.8285715,81.0716149 L89.4857143,83.6402423 C92.8285715,87.2363208 92.0571429,91.3461247 92.0571429,96.7402423 C92.0571429,98.0245562 94.3714285,99.0520071 93.0857142,100.593184 C92.0571429,102.13436 90.5142858,103.675536 90.7714286,105.730438 C89.7428571,107.528478 87.4285714,107.78534 86.1428571,107.78534 C85.8857143,107.78534 85.6285714,107.528478 85.6285714,107.271615 C85.8857143,106.501027 86.6571429,105.730438 86.9142857,104.95985 C88.2,103.161811 87.4285714,100.593184 88.9714285,99.0520071 C87.6857142,95.1990658 85.8857143,91.3461247 85.3714286,87.2363208 L85.3714286,86.9794581 C84.3428572,89.03436 84.8571428,90.8323992 85.3714286,92.3735757 C82.0285714,96.4833795 78.6857142,100.336321 78.6857142,105.730438 C77.3999999,108.299066 75.3428571,110.353968 74.3142857,113.179458 C74.0571429,113.693184 73.2857142,113.179458 73.0285714,112.922595 C71.7428571,113.436321 71.4857143,112.922595 71.2285713,112.152007 L71.2285713,112.152007 L71.2285713,112.152007 L71.2285713,112.152007 Z" fill="#FFFFFF"></path>
                                    <path d="M106.971428,94.4284776 C110.057143,97.5108307 115.457143,101.877497 115.971429,103.675536 C116.485714,104.95985 116.228571,106.244164 116.228571,107.78534 C115.2,108.555929 114.685714,109.069654 113.4,109.840242 C113.4,107.78534 113.914286,105.473576 112.628571,104.189262 C110.057143,101.620635 107.742857,99.3088699 105.428571,96.997105 C104.657143,95.9696541 103.885714,94.6853403 104.4,93.6578894 C104.657143,93.1441639 104.914286,92.3735757 105.428571,91.8598502 C105.685714,92.8873012 106.2,93.6578894 106.971428,94.4284776 L106.971428,94.4284776 L106.971428,94.4284776 L106.971428,94.4284776 Z" fill="#FFFFFF"></path>
                                    <path d="M111.857143,108.299066 C111.342857,109.069654 111.085714,109.326517 110.314286,109.840242 L108.771429,108.042203 L108.771429,103.161811 L108.771429,103.161811 C106.714286,104.189262 107.228571,107.014752 107.228571,109.326517 C105.942857,108.299066 105.428571,107.78534 104.4,106.757889 C103.885714,103.932399 105.428571,102.391223 106.714286,100.336321 L111.857143,105.216713 L111.857143,108.299066 L111.857143,108.299066 L111.857143,108.299066 L111.857143,108.299066 Z" fill="#FFFFFF"></path>
                                    <path d="M103.628572,122.940242 C104.142857,122.169654 104.142857,121.655929 104.142857,120.88534 L93.0857142,120.88534 C93.0857142,122.426517 93.8571428,123.967693 95.4000001,124.995144 C96.9428572,126.022595 99.5142858,126.279458 101.314286,125.50887 C102.085714,124.995144 103.114286,123.967693 103.628572,122.940242 L103.628572,122.940242 L103.628572,122.940242 L103.628572,122.940242 Z" fill="#FFFFFF"></path>
                                    <path d="M91.0285714,147.342203 C91.0285714,144.25985 94.1142858,142.718674 95.9142856,140.663772 C96.4285714,140.150046 96.6857142,139.122595 96.1714286,138.352007 C95.9142856,137.838282 95.6571429,137.581419 95.1428571,137.581419 C94.3714285,137.324556 93.8571428,137.581419 93.6,137.838282 C93.0857142,138.352007 92.8285715,139.122595 92.8285715,139.893184 L90.7714286,139.893184 C90.5142858,138.60887 90.7714286,137.581419 91.5428571,136.810831 C92.5714287,135.78338 94.1142858,135.526517 95.4000001,135.526517 C96.4285714,135.78338 97.9714285,136.297105 98.4857143,137.581419 C99,138.865733 99,140.663772 97.9714285,141.691223 C96.6857142,142.975536 95.1428571,143.746125 94.1142858,145.287301 L99.5142858,145.030438 L99.5142858,146.828478 L91.0285714,147.342203 L91.0285714,147.342203 L91.0285714,147.342203 L91.0285714,147.342203 Z" fill="#6F6D5F"></path>
                                    <path d="M72.2571429,133.98534 L72.2571429,133.98534 L68.6571429,144.773576 L66.3428571,144.002987 L68.6571429,136.810831 L68.6571429,136.810831 C67.8857144,136.553968 66.6,136.297105 65.8285715,135.78338 L66.3428571,134.499066 C67.3714286,134.755929 68.6571429,135.012791 69.6857142,134.242203 C69.9428572,133.98534 70.2,133.98534 70.2,133.728478 L72.2571429,133.98534 L72.2571429,133.98534 L72.2571429,133.98534 L72.2571429,133.98534 Z" fill="#6F6D5F"></path>
                                    <path d="M114.428571,139.893184 C114.171429,138.865733 113.657143,138.095144 112.371429,137.581419 L111.6,137.324556 C112.371429,136.810831 112.885714,135.78338 112.628571,134.755929 C112.371429,133.728478 111.6,132.957889 110.571429,132.701027 C109.8,132.444164 108.771429,132.444164 107.742857,132.701027 C106.714286,132.957889 105.942857,133.471615 105.171429,133.98534 C104.4,134.755929 104.142857,135.78338 104.4,136.810831 C104.657143,137.838282 105.685714,138.352007 106.457143,138.352007 L105.942857,138.865733 C105.171429,139.636321 104.914286,140.663772 105.171429,141.691223 C105.428571,142.975536 106.457143,143.746125 107.485714,144.25985 C108.257143,144.516713 109.285714,144.516713 110.314286,144.25985 C111.342857,144.002987 112.371429,143.489262 112.885714,142.975536 C114.428571,142.204948 114.685714,140.920635 114.428571,139.893184 L114.428571,139.893184 L114.428571,139.893184 L114.428571,139.893184 Z M107.228571,136.810831 C106.971428,136.297105 106.971428,135.526517 107.485714,135.012791 C107.742857,134.755929 108.257143,134.499066 108.514286,134.499066 L109.8,134.499066 C110.314286,134.755929 110.828571,135.269654 110.828571,136.040242 C110.828571,136.553968 110.571429,136.810831 110.314286,137.067693 C110.057143,137.324556 109.542857,137.581419 109.285714,137.581419 L108,137.581419 C107.742857,137.324556 107.228571,137.067693 107.228571,136.810831 L107.228571,136.810831 L107.228571,136.810831 L107.228571,136.810831 Z M111.857143,141.948086 C111.6,142.204948 111.085714,142.461811 110.571429,142.718674 C110.057143,142.975536 109.542857,142.975536 109.028571,142.718674 C108.514286,142.461811 108,142.204948 108,141.691223 C107.742857,140.920635 108,140.150046 108.514286,139.636321 C108.771429,139.379458 109.285714,139.379458 109.542857,139.122595 L109.542857,139.122595 L110.828571,139.122595 C111.6,139.122595 112.114286,139.893184 112.371429,140.663772 C112.371429,140.920635 112.114286,141.43436 111.857143,141.948086 L111.857143,141.948086 L111.857143,141.948086 L111.857143,141.948086 Z" fill="#6F6D5F"></path>
                                    <path d="M85.6285714,143.746125 C85.6285714,142.718674 85.3714286,141.691223 84.3428572,140.920635 L83.8285715,140.663772 C84.6,140.406909 85.6285714,139.636321 85.6285714,138.60887 C85.8857143,137.581419 85.3714286,136.553968 84.3428572,136.040242 C83.5714285,135.526517 82.5428572,135.269654 81.5142856,135.269654 C80.4857143,135.269654 79.4571428,135.269654 78.6857142,135.78338 C77.6571429,136.297105 77.1428571,137.067693 77.1428571,138.352007 C77.1428571,139.379458 77.9142857,140.150046 78.6857142,140.663772 L78.1714286,140.920635 C77.1428571,141.43436 76.6285714,142.461811 76.6285714,143.489262 C76.6285714,144.773576 77.1428571,145.801027 78.1714286,146.571615 C78.9428572,147.08534 79.9714285,147.342203 81.0000001,147.342203 C82.0285714,147.342203 83.0571429,147.342203 83.8285715,146.828478 C84.8571428,146.057889 85.6285714,145.030438 85.6285714,143.746125 L85.6285714,143.746125 L85.6285714,143.746125 L85.6285714,143.746125 Z M79.4571428,138.865733 C79.4571428,138.352007 79.4571428,137.581419 80.2285715,137.324556 C80.4857143,137.067693 81.0000001,137.067693 81.5142856,137.067693 C82.0285714,137.067693 82.2857144,137.324556 82.7999999,137.581419 C83.3142857,137.838282 83.5714285,138.60887 83.3142857,139.122595 C83.3142857,139.636321 82.7999999,139.636321 82.5428572,139.893184 C82.2857144,140.150046 81.7714286,140.150046 81.2571428,140.150046 C80.7428571,140.150046 80.4857143,140.150046 80.2285715,139.893184 C79.9714285,139.379458 79.7142857,139.122595 79.4571428,138.865733 L79.4571428,138.865733 L79.4571428,138.865733 L79.4571428,138.865733 Z M82.5428572,145.030438 C82.2857144,145.287301 81.5142856,145.287301 81.0000001,145.287301 C80.4857143,145.287301 79.9714285,145.030438 79.4571428,144.773576 C78.9428572,144.516713 78.6857142,144.002987 78.6857142,143.489262 C78.6857142,142.718674 79.2,141.948086 79.9714285,141.948086 C80.2285715,141.948086 80.7428571,141.691223 81.2571428,141.691223 L81.2571428,141.691223 C81.7714286,141.691223 82.0285714,141.948086 82.2857144,141.948086 C83.0571429,142.204948 83.3142857,142.975536 83.3142857,143.746125 C83.3142857,144.25985 83.0571429,144.773576 82.5428572,145.030438 L82.5428572,145.030438 L82.5428572,145.030438 L82.5428572,145.030438 Z" fill="#6F6D5F"></path>
                                    <polygon fill="#6F6D5F" points="136.028571 35.6069091 125.485714 40.2304384 124.457143 37.9186737 135 33.5520071"></polygon>
                                    <path d="M96.6857142,17.6265168 L94.1142858,6.06769333 L96.6857142,6.32455609 C97.2,9.15004629 97.7142857,12.489262 98.2285715,14.8010267 C99.2571428,12.489262 100.542857,9.40690903 101.571429,6.83828158 L103.885714,7.09514432 L99,17.8833795 L96.6857142,17.6265168 L96.6857142,17.6265168 L96.6857142,17.6265168 L96.6857142,17.6265168 Z" fill="#6F6D5F"></path>
                                    <polygon fill="#6F6D5F" points="52.4571428 24.3049483 49.8857142 28.9284776 47.8285713 27.6441639 50.6571429 22.5069091 49.1142856 21.4794581 44.9999999 28.9284776 55.0285714 34.3225954 59.1428572 27.1304384 57.3428571 26.1029874 54.5142857 31.497105 51.6857143 29.6990658 54.2571429 25.3323992"></polygon>
                                    <path d="M46.5428572,72.3382817 C46.0285715,71.0539679 44.7428571,70.5402423 43.4571428,70.797105 C42.4285715,71.0539679 41.4,71.8245562 40.8857142,72.8520071 C40.6285714,72.0814189 40.1142857,71.3108307 39.0857143,71.0539679 C38.0571428,70.797105 36.7714285,71.3108307 36.2571429,72.0814189 C35.4857144,73.1088699 35.7428572,77.2186737 35.7428572,79.7873012 L47.0571428,79.7873012 L47.0571428,79.0167129 C46.8,74.6500463 47.0571428,74.1363208 46.5428572,72.3382817 L46.5428572,72.3382817 L46.5428572,72.3382817 L46.5428572,72.3382817 Z M40.1142857,77.4755365 L37.2857143,77.4755365 C37.2857143,74.9069091 37.0285715,73.6225954 38.5714286,73.3657326 C39.6000001,73.3657326 39.8571429,73.6225954 39.8571429,74.1363208 C40.1142857,74.6500463 40.1142857,75.1637718 40.1142857,77.4755365 L40.1142857,77.4755365 L40.1142857,77.4755365 L40.1142857,77.4755365 Z M44.9999999,77.4755365 L41.9142857,77.4755365 L41.9142857,77.4755365 C41.9142857,74.9069091 41.6571429,73.3657326 43.2,73.1088699 C43.7142858,72.8520071 44.4857144,73.1088699 44.7428571,73.3657326 C45.2571429,74.1363208 44.9999999,75.1637718 44.9999999,77.4755365 L44.9999999,77.4755365 L44.9999999,77.4755365 L44.9999999,77.4755365 Z" fill="#6F6D5F"></path>
                                    <polygon fill="#6F6D5F" points="136.028571 42.0284776 137.828571 41.5147521 140.142857 50.2480855 138.342857 50.761811 137.314286 47.4225954 128.314286 49.73436 127.8 47.4225954 136.8 45.1108307"></polygon>
                                    <path d="M76.1142858,15.3147522 L74.8285715,7.35200706 L72.5142856,7.60886982 L73.8,15.5716149 C74.0571429,16.3422031 74.3142857,17.1127914 75.0857143,17.6265168 C76.1142858,18.1402423 77.3999999,18.397105 78.6857142,18.1402423 L78.4285714,16.3422031 L77.3999999,16.3422031 C76.8857143,16.5990659 76.3714286,16.0853404 76.1142858,15.3147522 L76.1142858,15.3147522 L76.1142858,15.3147522 Z M82.7999999,14.2873012 L81.5142856,6.32455609 L79.2,6.58141884 L80.4857143,14.5441639 C80.4857143,15.0578894 80.2285715,15.8284777 79.7142857,16.0853404 C79.4571428,16.3422031 78.9428572,16.3422031 78.6857142,16.3422031 L78.9428572,18.1402423 C80.2285715,17.8833795 81.2571428,17.3696541 82.2857144,16.5990659 C82.7999999,15.8284777 82.7999999,15.0578894 82.7999999,14.2873012 L82.7999999,14.2873012 L82.7999999,14.2873012 Z" fill="#6F6D5F"></path>
                                    <path d="M141.171429,57.9539679 L129.342857,55.6422031 L129.6,57.9539679 L132.171429,58.4676934 L132.685714,62.5774973 L130.371428,63.6049483 L130.628571,65.9167129 L141.171429,60.5225954 L141.171429,57.9539679 L141.171429,57.9539679 L141.171429,57.9539679 L141.171429,57.9539679 Z M134.742857,61.5500463 L134.228571,58.7245562 L139.114286,59.4951444 L139.114286,59.4951444 L139.114286,59.4951444 L139.114286,59.4951444 L139.114286,59.4951444 L134.742857,61.5500463 L134.742857,61.5500463 L134.742857,61.5500463 L134.742857,61.5500463 Z" fill="#6F6D5F"></path>
                                    <path d="M139.628571,77.4755365 L139.628571,77.4755365 L140.142857,77.4755365 L140.4,77.4755365 C141.171429,76.961811 141.428571,76.1912228 141.171429,75.1637718 C141.171429,74.3931836 140.914286,73.6225954 140.142857,73.1088699 C139.628571,73.1088699 139.371429,72.8520071 138.857143,73.3657326 C137.571429,75.1637718 138.342857,79.2735757 135.257143,80.0441639 C133.714286,80.3010266 132.685714,79.5304384 131.914286,78.5029874 C130.885714,76.7049483 130.885714,73.8794581 131.914286,72.0814189 C132.685714,71.0539679 133.457143,70.5402423 134.742857,70.5402423 L135,72.5951444 C134.228571,72.5951444 133.714286,73.1088699 133.2,73.6225954 C132.685714,74.6500463 132.942857,76.4480855 133.714286,77.2186737 C133.971429,77.4755365 134.742857,77.4755365 135,77.2186737 C136.285714,76.1912228 136.028571,73.8794581 136.8,72.3382817 C137.057143,71.5676934 137.571429,71.0539679 138.342857,70.5402423 C139.628571,70.0265168 140.914286,70.2833795 141.942857,71.0539679 C143.485714,72.5951444 143.485714,75.1637718 142.714286,76.961811 C142.2,78.2461247 140.914286,79.0167129 139.628571,79.0167129 L139.628571,77.4755365 L139.628571,77.4755365 L139.628571,77.4755365 L139.628571,77.4755365 L139.628571,77.4755365 Z" fill="#6F6D5F"></path>
                                    <path d="M44.7428571,62.0637718 L36.7714285,60.7794581 L36.5142857,63.0912228 L44.4857144,64.3755365 C45.2571429,64.3755365 46.0285715,64.3755365 46.8,63.6049483 C47.8285713,62.83436 48.3428571,61.5500463 48.3428571,60.2657326 L46.5428572,60.0088699 C46.5428572,60.2657326 46.2857142,60.7794581 46.2857142,61.0363208 C46.0285715,61.5500463 45.5142857,62.0637718 44.7428571,62.0637718 L44.7428571,62.0637718 L44.7428571,62.0637718 Z M47.8285713,56.6696541 C47.3142858,55.8990658 46.5428572,55.3853403 45.7714287,55.3853403 L37.8,54.1010266 L37.5428572,56.4127913 L45.5142857,57.697105 C46.0285715,57.697105 46.5428572,58.4676934 46.8,58.9814189 L46.8,60.0088699 L48.6000001,60.2657326 C48.6000001,58.9814189 48.6000001,57.697105 47.8285713,56.6696541 L47.8285713,56.6696541 L47.8285713,56.6696541 Z" fill="#6F6D5F"></path>
                                    <path d="M60.9428572,11.9755365 L58.8857144,13.2598502 L61.4571428,25.0755365 L63.5142857,23.7912228 L63.0000001,21.2225954 L66.6,19.1676934 L68.6571429,20.9657326 L70.7142858,19.6814189 L60.9428572,11.9755365 L60.9428572,11.9755365 L60.9428572,11.9755365 L60.9428572,11.9755365 Z M62.4857143,19.4245562 L61.2,14.5441639 L61.2,14.5441639 L61.2,14.5441639 L61.2,14.5441639 L61.2,14.5441639 L64.8,17.8833795 L62.4857143,19.4245562 L62.4857143,19.4245562 L62.4857143,19.4245562 L62.4857143,19.4245562 Z" fill="#6F6D5F"></path>
                                    <polygon fill="#6F6D5F" points="115.971429 15.5716149 111.085714 13.7735757 112.114286 11.461811 117.514286 13.7735757 118.285714 11.9755365 110.571429 8.89318355 106.2 19.1676934 113.914286 22.5069091 114.685714 20.7088699 109.285714 18.397105 110.314286 15.5716149 115.2 17.3696541"></polygon>
                                    <path d="M47.0571428,40.7441639 C47.0571428,39.9735757 47.0571428,39.2029874 46.2857142,38.689262 C45.7714287,37.9186737 44.7428571,37.661811 43.7142858,37.9186737 C41.1428572,38.1755365 40.8857142,41.2578894 39.3428571,45.8814189 L50.1428572,49.2206345 L50.9142857,46.9088699 L46.5428572,45.6245562 L46.2857142,45.6245562 C46.5428572,44.597105 47.0571428,43.3127913 47.3142858,43.0559286 C48.0857143,41.2578894 50.9142857,43.0559286 52.2,42.7990658 L52.9714286,40.4873012 C50.9142857,40.2304384 48.3428571,38.689262 47.0571428,40.7441639 L47.0571428,40.7441639 L47.0571428,40.7441639 L47.0571428,40.7441639 Z M44.7428571,44.8539679 L41.9142857,44.0833795 C42.4285715,42.0284776 42.9428571,40.2304384 44.2285714,40.2304384 C44.7428571,40.2304384 45.2571429,40.4873012 45.5142857,40.7441639 C46.0285715,41.5147521 45.2571429,42.7990658 44.7428571,44.8539679 L44.7428571,44.8539679 L44.7428571,44.8539679 L44.7428571,44.8539679 Z" fill="#6F6D5F"></path>
                                    <path d="M126,18.1402423 L117,25.0755365 L118.542857,26.8735757 L122.142857,24.0480855 L122.4,24.0480855 C123.171429,24.8186737 123.942857,26.1029874 123.942857,26.3598502 C124.971429,28.1578894 121.885714,29.4422031 121.371429,30.4696541 L122.914286,32.2676934 C123.942857,30.7265168 126.771429,29.4422031 126,27.1304384 C126.514286,27.6441639 127.285714,27.9010266 128.057143,27.6441639 C128.828571,27.6441639 129.857143,26.8735757 130.371428,26.1029874 C131.142857,24.0480855 129.085714,21.9931836 126,18.1402423 L126,18.1402423 L126,18.1402423 L126,18.1402423 Z M127.8,25.3323992 C127.285714,25.8461247 127.028572,25.8461247 126.514286,25.8461247 C125.742857,25.8461247 124.971429,24.561811 123.685714,23.0206345 L126,21.2225954 C127.285714,22.7637718 128.571429,24.3049483 127.8,25.3323992 L127.8,25.3323992 L127.8,25.3323992 L127.8,25.3323992 Z" fill="#6F6D5F"></path>
                                    <polygon fill="#6F6D5F" points="176.914286 188.953967 176.914286 163.267693 0.514285715 163.267693 0.514285715 188.953967"></polygon>
                                    <polygon fill="#BD0E2E" points="176.914286 219.006909 176.914286 193.063772 0.514285715 193.063772 0.514285715 219.006909"></polygon>
                                    <path d="M49.3714286,182.275536 C49.8857142,182.275536 50.4,182.275536 50.9142857,182.018674 C51.6857143,181.761811 52.4571428,180.991223 52.4571428,179.963772 L52.4571428,167.63436 L55.8,167.63436 L55.8,179.963772 C55.8,181.248086 55.5428572,182.275536 54.2571429,183.302987 C52.9714286,184.587301 50.9142857,184.844164 49.1142856,184.844164 L49.1142856,184.844164 C47.3142858,184.844164 45.2571429,184.330438 43.9714286,183.302987 C42.6857143,182.275536 42.4285715,181.248086 42.4285715,179.963772 L42.4285715,167.63436 L45.7714287,167.63436 L45.7714287,179.963772 C45.7714287,180.991223 46.5428572,181.761811 47.5714285,182.018674 C48.3428571,182.275536 48.8571429,182.275536 49.3714286,182.275536" fill="#FFFFFF"></path>
                                    <polygon fill="#FFFFFF" points="108.514286 174.055929 100.8 174.055929 100.8 170.45985 109.542857 170.45985 109.542857 167.63436 97.2 167.63436 97.2 184.330438 109.542857 184.330438 109.542857 181.504948 100.8 181.504948 100.8 176.881419 108.514286 176.881419"></polygon>
                                    <path d="M153.771428,182.275536 C154.285714,182.275536 154.8,182.275536 155.314286,182.018674 C156.085714,181.761811 156.857143,180.73436 156.857143,179.963772 L156.857143,167.63436 L160.457143,167.63436 L160.457143,179.963772 C160.457143,181.248086 160.2,182.275536 158.914286,183.302987 C157.628571,184.587301 155.571429,184.844164 153.771428,184.844164 L153.771428,184.844164 C151.971429,184.844164 149.914286,184.330438 148.628571,183.302987 C147.342857,182.275536 147.085714,181.248086 147.085714,179.963772 L147.085714,167.63436 L150.685714,167.63436 L150.685714,179.963772 C150.685714,180.991223 151.457143,181.761811 152.228571,182.018674 C152.742857,182.018674 153.257143,182.275536 153.771428,182.275536" fill="#FFFFFF"></path>
                                    <path d="M16.7142857,167.63436 L24.9428571,167.63436 C27.5142857,167.63436 29.5714286,168.918674 29.8285714,171.487301 C30.0857143,173.28534 29.5714286,174.826517 27.2571429,175.340242 C29.0571428,175.853968 30.3428571,177.652007 30.3428571,179.706909 C30.3428571,181.504948 28.8,184.073576 24.6857143,184.073576 L16.7142857,184.073576 L16.7142857,167.63436 L16.7142857,167.63436 L16.7142857,167.63436 L16.7142857,167.63436 Z" fill="#FFFFFF"></path>
                                    <path d="M20.3142858,176.881419 L24.6857143,176.881419 C25.9714286,176.881419 26.7428572,178.165733 26.7428572,179.193184 C26.7428572,180.220635 26.2285714,181.248086 24.9428571,181.504948 C23.6571428,181.761811 23.6571428,181.504948 20.0571428,181.761811 L20.3142858,176.881419" fill="#6F6D5F"></path>
                                    <path d="M20.3142858,170.202987 L24.4285713,170.202987 C25.4571429,170.202987 26.4857142,170.716713 26.4857142,172.001027 C26.4857142,173.28534 25.7142856,174.312791 24.4285713,174.312791 L20.3142858,174.312791 L20.3142858,170.202987 L20.3142858,170.202987 L20.3142858,170.202987 L20.3142858,170.202987 Z" fill="#6F6D5F"></path>
                                    <path d="M130.371428,167.63436 L126.771429,167.63436 L120.857143,184.330438 L124.2,184.330438 L125.485714,180.73436 L131.657143,180.73436 L132.942857,184.330438 L136.285714,184.330438 L130.371428,167.63436 L130.371428,167.63436 L130.371428,167.63436 L130.371428,167.63436 Z M126.514286,177.90887 L128.571429,170.973576 L128.571429,170.973576 L128.571429,170.973576 L128.571429,170.973576 L128.571429,170.973576 L130.628571,177.90887 L126.514286,177.90887 L126.514286,177.90887 L126.514286,177.90887 L126.514286,177.90887 Z" fill="#FFFFFF"></path>
                                    <path d="M80.4857143,176.367693 C82.2857144,175.853968 84.0857143,175.08338 83.8285715,171.744164 C83.5714285,168.918674 81.0000001,167.891223 78.4285714,167.63436 L70.4571428,167.63436 L70.4571428,184.330438 L74.0571429,184.330438 L74.0571429,177.395144 L78.1714286,177.395144 C81.0000001,177.652007 79.9714285,184.330438 80.7428571,184.330438 L84.0857143,184.330438 C83.0571429,181.761811 84.6,177.138282 80.4857143,176.367693 L80.4857143,176.367693 L80.4857143,176.367693 L80.4857143,176.367693 Z M78.9428572,174.569654 L74.3142857,174.569654 L74.3142857,170.202987 L78.6857142,170.202987 C79.7142857,170.202987 80.4857143,170.973576 80.7428571,172.257889 C80.4857143,173.542203 79.9714285,174.569654 78.9428572,174.569654 L78.9428572,174.569654 L78.9428572,174.569654 L78.9428572,174.569654 Z" fill="#FFFFFF"></path>
                                    <path d="M21.3428571,214.38338 L15.6857143,197.687301 L19.2857143,197.687301 C20.5714286,201.797106 21.5999999,206.677498 22.8857142,210.273575 C24.1714285,206.677498 25.4571429,202.053967 26.4857142,197.944164 L30.0857143,197.944164 L24.4285713,214.897106 L21.3428571,214.897106 L21.3428571,214.38338 L21.3428571,214.38338 L21.3428571,214.38338 Z" fill="#FFFFFF"></path>
                                    <polygon fill="#FFFFFF" points="51.4285715 203.852008 43.7142858 203.852008 43.7142858 200.255928 52.7142858 200.255928 52.7142858 197.430438 40.3714286 197.430438 40.3714286 214.38338 52.7142858 214.38338 52.7142858 211.55789 43.7142858 211.55789 43.7142858 206.934361 51.4285715 206.934361"></polygon>
                                    <polygon fill="#FFFFFF" points="93.8571428 197.430438 93.8571428 214.38338 90.5142858 214.38338 90.5142858 197.430438"></polygon>
                                    <polygon fill="#FFFFFF" points="103.628572 200.512791 103.628572 197.687301 117.257143 197.687301 117.257143 200.512791 112.371429 200.512791 112.371429 214.38338 108.771429 214.38338 108.771429 200.512791"></polygon>
                                    <path d="M133.714286,197.430438 L130.114286,197.430438 L124.2,214.126517 L127.542857,214.126517 L128.828571,210.530438 L135,210.530438 L136.285714,214.126517 L139.628571,214.126517 L133.714286,197.430438 L133.714286,197.430438 L133.714286,197.430438 L133.714286,197.430438 Z M129.6,207.961811 L131.657143,201.026517 L131.657143,201.026517 L131.657143,201.026517 L131.657143,201.026517 L131.657143,201.026517 L133.714286,207.961811 L129.6,207.961811 L129.6,207.961811 L129.6,207.961811 L129.6,207.961811 Z" fill="#FFFFFF"></path>
                                    <path d="M74.5714285,206.163772 C76.3714286,205.650046 78.1714286,204.879457 77.9142857,201.540243 C77.6571429,198.714753 75.0857143,197.687301 72.5142856,197.430438 L64.5428572,197.430438 L64.5428572,214.126517 L68.1428571,214.126517 L68.1428571,207.191222 L72.2571429,207.191222 C75.0857143,207.448085 74.0571429,214.126517 74.8285715,214.126517 L78.1714286,214.126517 C76.8857143,211.55789 78.4285714,206.934361 74.5714285,206.163772 L74.5714285,206.163772 L74.5714285,206.163772 L74.5714285,206.163772 Z M72.7714286,204.622594 L68.1428571,204.622594 L68.1428571,200.255928 L72.5142856,200.255928 C73.5428572,200.255928 74.3142857,201.026517 74.3142857,202.31083 C74.3142857,203.595145 73.8,204.365733 72.7714286,204.622594 L72.7714286,204.622594 L72.7714286,204.622594 L72.7714286,204.622594 Z" fill="#FFFFFF"></path>
                                    <path d="M147.6,208.989262 C147.6,211.55789 149.657143,214.640243 154.8,214.640243 C158.914286,214.640243 162,212.842203 162,208.989262 C162,203.338282 151.714286,204.879457 151.714286,201.797106 C151.714286,200.512791 152.742857,199.48534 155.057143,199.48534 C157.371429,199.48534 158.142857,200.769654 158.142857,202.053967 L161.485714,202.053967 C161.485714,201.026517 160.971429,196.916712 154.8,196.916712 C150.428572,196.916712 148.371429,199.48534 148.371429,202.567693 C148.371429,208.218674 158.4,206.163772 158.4,209.759851 C158.4,211.814753 156.342857,212.071616 154.542857,212.071616 C152.228571,212.071616 150.942857,210.273575 150.942857,208.989262 L147.6,208.989262 L147.6,208.989262 L147.6,208.989262 L147.6,208.989262 Z" fill="#FFFFFF"></path>
                                </g>
                            </g>
                        </g>
                    </g>
                </g>
            </g>
        </g>
    </g>
</svg>