<?xml version="1.0" encoding="utf-8"?>
<!-- Generator: Adobe Illustrator 20.1.0, SVG Export Plug-In . SVG Version: 6.00 Build 0)  -->
<svg version="1.1" id="Capa_1" xmlns="http://www.w3.org/2000/svg" xmlns:xlink="http://www.w3.org/1999/xlink" x="0px" y="0px"
	 viewBox="0 0 35 35" style="enable-background:new 0 0 35 35;" xml:space="preserve">
<style type="text/css">
	.st0{fill:#FFFFFF;}
</style>
<g id="cancel-1">
	<path id="Shape" d="M17.5,2.6c8.2,0,14.9,6.7,14.9,14.9s-6.7,14.9-14.9,14.9S2.6,25.7,2.6,17.5S9.3,2.6,17.5,2.6L17.5,2.6z"/>
	<path id="Shape1" class="st0" d="M11,23.8c0.2,0.2,0.5,0.4,0.9,0.4c0.3,0,0.6-0.1,0.9-0.4l4.8-4.8l4.8,4.8c0.2,0.2,0.5,0.4,0.9,0.4
		s0.6-0.1,0.9-0.4c0.5-0.5,0.5-1.3,0-1.7l-4.8-4.8l4.8-4.8c0.5-0.5,0.5-1.3,0-1.7c-0.5-0.5-1.3-0.5-1.7,0l-4.8,4.8l-4.8-4.8
		c-0.5-0.5-1.3-0.5-1.7,0c-0.5,0.5-0.5,1.3,0,1.7l4.8,4.8L11,22.1C10.5,22.6,10.5,23.4,11,23.8L11,23.8z"/>
</g>
</svg>
