<?xml version="1.0" encoding="utf-8"?>
<!-- Generator: Adobe Illustrator 20.1.0, SVG Export Plug-In . SVG Version: 6.00 Build 0)  -->
<svg version="1.1" id="Capa_1" xmlns="http://www.w3.org/2000/svg" xmlns:xlink="http://www.w3.org/1999/xlink" x="0px" y="0px"
	 viewBox="0 0 35 35" style="enable-background:new 0 0 35 35;" xml:space="preserve">
<style type="text/css">
	.st0{fill:#FFFFFF;}
</style>
<g id="check-on">
	<path id="Shape" d="M17.5,2.6c8.2,0,14.9,6.7,14.9,14.9s-6.7,14.9-14.9,14.9S2.6,25.7,2.6,17.5S9.3,2.6,17.5,2.6L17.5,2.6z"/>
	<path id="Shape_1_" class="st0" d="M9.9,19.5c-0.4-0.4-1.1-0.4-1.6,0c-0.4,0.4-0.4,1.1,0,1.6l5.1,5.1c0.2,0.2,0.5,0.3,0.8,0.3h0.1
		c0.3,0,0.6-0.2,0.8-0.4l12.7-15.2c0.4-0.5,0.3-1.2-0.1-1.6c-0.5-0.4-1.2-0.3-1.6,0.1l-12,14.3L9.9,19.5L9.9,19.5z"/>
</g>
</svg>
