<svg width="35px" height="35px" viewBox="0 0 35 35" version="1.1" xmlns="http://www.w3.org/2000/svg" xmlns:xlink="http://www.w3.org/1999/xlink"><g id="left-arrow-1" fill="#000000"><path d="M17.5,34.8803419 C27.0726496,34.8803419 34.8803419,27.1025641 34.8803419,17.5 C34.8803419,7.8974359 27.1025641,0.14957265 17.5,0.14957265 C7.8974359,0.14957265 0.14957265,7.92735043 0.14957265,17.5 C0.14957265,27.0726496 7.92735043,34.8803419 17.5,34.8803419 L17.5,34.8803419 Z M17.5,2.57264957 C25.7264957,2.57264957 32.4273504,9.27350427 32.4273504,17.5 C32.4273504,25.7264957 25.7264957,32.4273504 17.5,32.4273504 C9.27350427,32.4273504 2.57264957,25.7264957 2.57264957,17.5 C2.57264957,9.27350427 9.27350427,2.57264957 17.5,2.57264957 L17.5,2.57264957 Z" id="Shape"></path><path d="M19.1452991,26.1752137 C19.3846154,26.4145299 19.6837607,26.534188 20.0128205,26.534188 C20.3119658,26.534188 20.6410256,26.4145299 20.8803419,26.1752137 C21.3589744,25.6965812 21.3589744,24.9188034 20.8803419,24.4401709 L13.8504274,17.4102564 L20.8803419,10.3803419 C21.3589744,9.9017094 21.3589744,9.12393162 20.8803419,8.64529915 C20.4017094,8.16666667 19.6239316,8.16666667 19.1452991,8.64529915 L11.2478632,16.542735 C11.008547,16.7820513 10.8888889,17.0811966 10.8888889,17.4102564 C10.8888889,17.7393162 11.008547,18.0384615 11.2478632,18.2777778 L19.1452991,26.1752137 L19.1452991,26.1752137 Z" id="Shape"></path></g></svg>