<svg width="35px" height="35px" viewBox="0 0 35 35" version="1.1" xmlns="http://www.w3.org/2000/svg" xmlns:xlink="http://www.w3.org/1999/xlink"><g id="less" fill="#000000"><path d="M17.5,34.8205128 C27.042735,34.8205128 34.8205128,27.042735 34.8205128,17.5 C34.8205128,7.95726496 27.042735,0.179487179 17.5,0.179487179 C7.95726496,0.179487179 0.179487179,7.95726496 0.179487179,17.5 C0.179487179,27.042735 7.95726496,34.8205128 17.5,34.8205128 L17.5,34.8205128 Z M17.5,2.6025641 C25.6965812,2.6025641 32.3974359,9.27350427 32.3974359,17.5 C32.3974359,25.7264957 25.7264957,32.3974359 17.5,32.3974359 C9.27350427,32.3974359 2.6025641,25.6965812 2.6025641,17.5 C2.6025641,9.3034188 9.3034188,2.6025641 17.5,2.6025641 L17.5,2.6025641 Z" id="Shape"></path><path d="M9.51282051,18.5470085 L25.457265,18.5470085 C26.1452991,18.5470085 26.6837607,18.008547 26.6837607,17.3205128 C26.6837607,16.6324786 26.1452991,16.0940171 25.457265,16.0940171 L9.51282051,16.0940171 C8.82478632,16.0940171 8.28632479,16.6324786 8.28632479,17.3205128 C8.28632479,18.008547 8.85470085,18.5470085 9.51282051,18.5470085 L9.51282051,18.5470085 Z" id="Shape"></path></g></svg>