<svg width="35px" height="35px" viewBox="0 0 35 35" version="1.1" xmlns="http://www.w3.org/2000/svg" xmlns:xlink="http://www.w3.org/1999/xlink"><g id="cancel-1" fill="#000000"><path d="M17.5,34.8803419 C27.0726496,34.8803419 34.8803419,27.1025641 34.8803419,17.5 C34.8803419,7.8974359 27.0726496,0.11965812 17.5,0.11965812 C7.92735043,0.11965812 0.11965812,7.92735043 0.11965812,17.5 C0.11965812,27.0726496 7.92735043,34.8803419 17.5,34.8803419 L17.5,34.8803419 Z M17.5,2.57264957 C25.7264957,2.57264957 32.4273504,9.27350427 32.4273504,17.5 C32.4273504,25.7264957 25.7264957,32.4273504 17.5,32.4273504 C9.27350427,32.4273504 2.57264957,25.7264957 2.57264957,17.5 C2.57264957,9.27350427 9.27350427,2.57264957 17.5,2.57264957 L17.5,2.57264957 Z" id="Shape"></path><path d="M10.9786325,23.8418803 C11.2179487,24.0811966 11.517094,24.2008547 11.8461538,24.2008547 C12.1752137,24.2008547 12.474359,24.0811966 12.7136752,23.8418803 L17.5,19.0555556 L22.2863248,23.8418803 C22.525641,24.0811966 22.8247863,24.2008547 23.1538462,24.2008547 C23.482906,24.2008547 23.7820513,24.0811966 24.0213675,23.8418803 C24.5,23.3632479 24.5,22.5854701 24.0213675,22.1068376 L19.2350427,17.3205128 L24.0213675,12.534188 C24.5,12.0555556 24.5,11.2777778 24.0213675,10.7991453 C23.542735,10.3205128 22.7649573,10.3205128 22.2863248,10.7991453 L17.5,15.5854701 L12.7136752,10.7991453 C12.2350427,10.3205128 11.457265,10.3205128 10.9786325,10.7991453 C10.5,11.2777778 10.5,12.0555556 10.9786325,12.534188 L15.7649573,17.3205128 L10.9786325,22.1068376 C10.5,22.5854701 10.5,23.3632479 10.9786325,23.8418803 L10.9786325,23.8418803 Z" id="Shape"></path></g></svg>