<svg id="Capa_1" data-name="Capa 1" xmlns="http://www.w3.org/2000/svg" width="34.99" height="57.22" viewBox="0 0 34.99 57.22"><defs><style>.cls-1{fill:#0088CE;}</style></defs><title>chartHover</title><path class="cls-1" d="M10.76,53.94a3.57,3.57,0,0,1-1.12,2.41,3.72,3.72,0,0,1-2.54.83,3.51,3.51,0,0,1-2-.55,3.61,3.61,0,0,1-1.26-1.57,5.58,5.58,0,0,1-.47-2.32V51.45a5.64,5.64,0,0,1,.46-2.39,3.58,3.58,0,0,1,1.34-1.58,3.65,3.65,0,0,1,2-.56,3.56,3.56,0,0,1,2.53.86,3.61,3.61,0,0,1,1.06,2.42H9.91A2.53,2.53,0,0,0,7.4,47.65H7.16a2.61,2.61,0,0,0-2.16,1,4.39,4.39,0,0,0-.8,2.8v1.22A4.42,4.42,0,0,0,5,55.43a2.52,2.52,0,0,0,2.12,1,2.8,2.8,0,0,0,2-.63,3,3,0,0,0,.83-1.9Z" transform="translate(-2.07)"/><path class="cls-1" d="M13.44,50.9a2.88,2.88,0,0,1,1-1,2.71,2.71,0,0,1,1.37-.36,2.22,2.22,0,0,1,1.77.67,3,3,0,0,1,.59,2v4.85h-.81V52.18a2.26,2.26,0,0,0-.42-1.48,1.65,1.65,0,0,0-1.32-.49,2.07,2.07,0,0,0-1.34.47A2.79,2.79,0,0,0,13.42,52v5.1h-.81V46.54h.81Z" transform="translate(-2.07)"/><path class="cls-1" d="M25,57.06a3.87,3.87,0,0,1-.16-1,2.84,2.84,0,0,1-1.1.86,3.36,3.36,0,0,1-1.41.3,2.48,2.48,0,0,1-1.73-.59,1.94,1.94,0,0,1-.66-1.5,2,2,0,0,1,.9-1.71,4.32,4.32,0,0,1,2.51-.63h1.48V52a1.62,1.62,0,0,0-.49-1.25,2,2,0,0,0-1.43-.45,2.23,2.23,0,0,0-1.42.44,1.3,1.3,0,0,0-.56,1h-.82a1.9,1.9,0,0,1,.82-1.53,3.15,3.15,0,0,1,2-.65,2.88,2.88,0,0,1,2,.62,2.22,2.22,0,0,1,.73,1.73v3.5A4.34,4.34,0,0,0,25.87,57v0Zm-2.57-.59a2.74,2.74,0,0,0,1.47-.4A2.33,2.33,0,0,0,24.82,55V53.37H23.35a3.66,3.66,0,0,0-1.91.45,1.34,1.34,0,0,0-.68,1.24,1.32,1.32,0,0,0,.46,1,1.74,1.74,0,0,0,1.19.4Z" transform="translate(-2.07)"/><path class="cls-1" d="M31.23,50.35a3,3,0,0,0-.55,0,2,2,0,0,0-1.3.43A2.35,2.35,0,0,0,28.63,52v5h-.87v-7.4h.8v1.18a2.17,2.17,0,0,1,2.08-1.31,1.34,1.34,0,0,1,.54.09Z" transform="translate(-2.07)"/><path class="cls-1" d="M34.13,47.75v1.89h1.53v.67H34.13v4.93a1.55,1.55,0,0,0,.22.92.86.86,0,0,0,.74.3,5,5,0,0,0,.66-.07v.67a2.67,2.67,0,0,1-.87.12,1.46,1.46,0,0,1-1.22-.49,2.3,2.3,0,0,1-.38-1.44V50.32H32v-.67h1.36v-1.9Z" transform="translate(-2.07)"/><path class="cls-1" d="M35.84,0H24.29a1.23,1.23,0,0,0,0,2.45h8.55L18.09,17.21,12,11.06a1.24,1.24,0,0,0-1.75,0l-7,7A1.23,1.23,0,0,0,5,19.8l6.13-6.13,6.13,6.13a1.23,1.23,0,0,0,1.74,0h0L34.61,4.16v8.62a1.23,1.23,0,0,0,2.45,0V1.23A1.23,1.23,0,0,0,35.84,0Z" transform="translate(-2.07)"/><path class="cls-1" d="M2.07,21.45v13a.5.5,0,0,0,.5.5H4a.5.5,0,0,0,.5-.5V22.14A3.24,3.24,0,0,1,2.07,21.45Z" transform="translate(-2.07)"/><path class="cls-1" d="M7.49,34.5A.5.5,0,0,0,8,35H9.4a.5.5,0,0,0,.5-.5V17.66L7.45,20.11Z" transform="translate(-2.07)"/><path class="cls-1" d="M12.16,34.5a.5.5,0,0,0,.5.5h1.45a.5.5,0,0,0,.5-.5V20.11l-2.45-2.45Z" transform="translate(-2.07)"/><path class="cls-1" d="M20.4,21.22a7.15,7.15,0,0,1-.57.45,3.61,3.61,0,0,1-1.47.48V34.5a.5.5,0,0,0,.5.5h1.45a.5.5,0,0,0,.5-.5V20.8Z" transform="translate(-2.07)"/><path class="cls-1" d="M23.76,17.83V34.5a.5.5,0,0,0,.5.5h1.45a.5.5,0,0,0,.5-.5V15.38Z" transform="translate(-2.07)"/><path class="cls-1" d="M29.19,12.41V34.5a.5.5,0,0,0,.5.5h1.45a.5.5,0,0,0,.5-.5V9.95Z" transform="translate(-2.07)"/><path class="cls-1" d="M34.61,15.76V34.5a.5.5,0,0,0,.5.5h1.45a.5.5,0,0,0,.5-.5V15.76A3.31,3.31,0,0,1,34.61,15.76Z" transform="translate(-2.07)"/></svg>