<svg version="1.1" id="volumenOff" xmlns="http://www.w3.org/2000/svg" xmlns:xlink="http://www.w3.org/1999/xlink" x="0px" y="0px" width="35px" height="35px" viewBox="0 0 35 35" enable-background="new 0 0 35 35" xml:space="preserve"><path id="Shape" d="M1.346,26.803h8.077c0.688,0,1.227-0.537,1.227-1.226v-0.419l14.239,9.482c0.209,0.15,0.449,0.21,0.688,0.21 c0.209,0,0.389-0.06,0.568-0.149c0.389-0.21,0.657-0.629,0.657-1.077V1.346c0-0.449-0.238-0.868-0.657-1.077 c-0.39-0.209-0.868-0.179-1.257,0.06L10.649,9.842V9.423c0-0.688-0.538-1.226-1.227-1.226H1.346c-0.688,0-1.227,0.538-1.227,1.226 v16.154C0.12,26.234,0.688,26.803,1.346,26.803L1.346,26.803z M10.649,12.773l13.701-9.124v27.731l-13.701-9.154V12.773 L10.649,12.773z M2.573,10.649h5.624v1.466v10.77v1.466H2.573V10.649L2.573,10.649z"/><path id="Shape_1_" d="M33.654,8.197c-0.688,0-1.227,0.538-1.227,1.226v16.154c0,0.688,0.538,1.226,1.227,1.226 c0.688,0,1.227-0.537,1.227-1.226V9.423C34.881,8.765,34.313,8.197,33.654,8.197L33.654,8.197z"/><path id="close" d="M0.479,34.521c0.239,0.239,0.539,0.359,0.868,0.359s0.628-0.12,0.868-0.359L17.5,19.234l15.286,15.287 c0.239,0.239,0.538,0.359,0.868,0.359c0.299,0,0.628-0.12,0.867-0.359c0.479-0.479,0.479-1.256,0-1.735L19.234,17.5L34.521,2.214 C35,1.735,35,0.957,34.521,0.479s-1.256-0.479-1.735,0L17.5,15.765L2.214,0.479C1.735,0,0.957,0,0.479,0.479S0,1.735,0.479,2.214 L15.765,17.5L0.479,32.786C0,33.266,0,34.043,0.479,34.521L0.479,34.521z"/></g></svg>
