<svg id="Capa_1" data-name="Capa 1" xmlns="http://www.w3.org/2000/svg" width="116.72" height="57.23" viewBox="0 0 116.72 57.23"><defs><style>.cls-1{fill:#0088ce;}</style></defs><title>furtherinformationHover</title><path class="cls-1" d="M5.53,52.39H.84v4.67H0v-10H6.17v.71H.84v3.88H5.53Z" transform="translate(0 0.01)"/><path class="cls-1" d="M12.29,56.06a2.66,2.66,0,0,1-2.36,1.12,2.29,2.29,0,0,1-1.8-.69,3,3,0,0,1-.63-2V49.65h.81v4.71q0,2.11,1.71,2.11A2.1,2.1,0,0,0,12.27,55V49.65h.82v7.41H12.3Z" transform="translate(0 0.01)"/><path class="cls-1" d="M18.64,50.35a3,3,0,0,0-.55,0,2,2,0,0,0-1.3.43A2.35,2.35,0,0,0,16,52v5h-.81v-7.4H16v1.18a2.18,2.18,0,0,1,2.08-1.31,1.34,1.34,0,0,1,.54.09Z" transform="translate(0 0.01)"/><path class="cls-1" d="M21.53,47.75v1.89h1.53v.67H21.53v4.93a1.55,1.55,0,0,0,.22.92.86.86,0,0,0,.74.3,5,5,0,0,0,.66-.07V57a2.66,2.66,0,0,1-.88.12,1.46,1.46,0,0,1-1.22-.49,2.3,2.3,0,0,1-.38-1.44V50.32h-1.3v-.67h1.36v-1.9Z" transform="translate(0 0.01)"/><path class="cls-1" d="M25.59,50.9a2.88,2.88,0,0,1,1-1A2.71,2.71,0,0,1,28,49.54a2.22,2.22,0,0,1,1.77.67,3,3,0,0,1,.59,2v4.85h-.79V52.18a2.26,2.26,0,0,0-.42-1.48,1.65,1.65,0,0,0-1.32-.49,2.07,2.07,0,0,0-1.34.47A2.79,2.79,0,0,0,25.59,52v5.1h-.81V46.54h.81Z" transform="translate(0 0.01)"/><path class="cls-1" d="M35.32,57.18a3.21,3.21,0,0,1-1.71-.46,3.17,3.17,0,0,1-1.19-1.29A4,4,0,0,1,32,53.57v-.31a4.35,4.35,0,0,1,.41-1.92A3.3,3.3,0,0,1,33.53,50a2.85,2.85,0,0,1,1.6-.49,2.67,2.67,0,0,1,2.14.92,3.73,3.73,0,0,1,.79,2.51v.46H32.82v.16a3.1,3.1,0,0,0,.72,2.1,2.3,2.3,0,0,0,1.81.84,2.67,2.67,0,0,0,1.18-.25,2.57,2.57,0,0,0,.91-.77l.51.39A3,3,0,0,1,35.32,57.18Zm-.15-7a2,2,0,0,0-1.56.68,3.13,3.13,0,0,0-.77,1.82h4.44v-.09a2.71,2.71,0,0,0-.61-1.74,1.89,1.89,0,0,0-1.5-.64Z" transform="translate(0 0.01)"/><path class="cls-1" d="M43.11,50.35a3,3,0,0,0-.55,0,2,2,0,0,0-1.3.43A2.35,2.35,0,0,0,40.53,52v5.09h-.81v-7.4h.81v1.18a2.18,2.18,0,0,1,2.08-1.31,1.34,1.34,0,0,1,.54.09Z" transform="translate(0 0.01)"/><path class="cls-1" d="M47.76,47.51a.55.55,0,0,1,.15-.39.54.54,0,0,1,.41-.16.55.55,0,0,1,.41.16.54.54,0,0,1,.15.39.53.53,0,0,1-.15.39.55.55,0,0,1-.41.16.53.53,0,0,1-.56-.5s0,0,0,0Zm1,9.53h-.82v-7.4h.82Z" transform="translate(0 0.01)"/><path class="cls-1" d="M51.72,49.65v1.26a2.93,2.93,0,0,1,1-1,2.69,2.69,0,0,1,1.37-.36,2.22,2.22,0,0,1,1.77.67,3,3,0,0,1,.59,2v4.84h-.81V52.18a2.26,2.26,0,0,0-.42-1.48,1.65,1.65,0,0,0-1.32-.49,2.07,2.07,0,0,0-1.34.47A2.79,2.79,0,0,0,51.7,52v5.1h-.81v-7.4Z" transform="translate(0 0.01)"/><path class="cls-1" d="M59.22,57.06V50.32H58v-.67h1.22v-.9A2.43,2.43,0,0,1,59.8,47a2.11,2.11,0,0,1,1.61-.61,3.14,3.14,0,0,1,.87.12l-.06.68a3.19,3.19,0,0,0-.75-.08,1.34,1.34,0,0,0-1,.42,1.74,1.74,0,0,0-.38,1.2v.92H61.8v.67H60v6.73Z" transform="translate(0 0.01)"/><path class="cls-1" d="M62.82,53.24a4.34,4.34,0,0,1,.41-1.92,3.1,3.1,0,0,1,2.88-1.8,3,3,0,0,1,2.39,1,4,4,0,0,1,.92,2.75v.17A4.38,4.38,0,0,1,69,55.37a3.09,3.09,0,0,1-1.17,1.32,3.2,3.2,0,0,1-1.72.46,3,3,0,0,1-2.39-1,4,4,0,0,1-.92-2.75Zm.82.23a3.35,3.35,0,0,0,.69,2.18,2.33,2.33,0,0,0,3.6,0,3.48,3.48,0,0,0,.69-2.25v-.16a3.76,3.76,0,0,0-.31-1.55,2.52,2.52,0,0,0-.88-1.09,2.25,2.25,0,0,0-1.3-.39,2.19,2.19,0,0,0-1.8.85,3.48,3.48,0,0,0-.69,2.25Z" transform="translate(0 0.01)"/><path class="cls-1" d="M74.53,50.35a3,3,0,0,0-.55,0,2,2,0,0,0-1.3.43A2.35,2.35,0,0,0,71.93,52v5h-.81v-7.4h.8v1.18A2.17,2.17,0,0,1,74,49.53a1.34,1.34,0,0,1,.54.09Z" transform="translate(0 0.01)"/><path class="cls-1" d="M76.53,49.65v1.2a2.74,2.74,0,0,1,1-1,2.81,2.81,0,0,1,1.37-.33A2.07,2.07,0,0,1,81.12,51a2.78,2.78,0,0,1,1.06-1.06,2.93,2.93,0,0,1,1.46-.37q2.38,0,2.43,2.6v4.93h-.74V52.17a2.2,2.2,0,0,0-.43-1.47,1.74,1.74,0,0,0-1.37-.48,2.18,2.18,0,0,0-1.49.57,2,2,0,0,0-.68,1.36v4.91h-.83v-5a2,2,0,0,0-.45-1.42,1.78,1.78,0,0,0-1.36-.47,2.06,2.06,0,0,0-1.33.44,2.58,2.58,0,0,0-.82,1.31v5.14h-.82v-7.4Z" transform="translate(0 0.01)"/><path class="cls-1" d="M92.89,57.06a3.85,3.85,0,0,1-.16-1,2.84,2.84,0,0,1-1.1.86,3.35,3.35,0,0,1-1.41.3,2.48,2.48,0,0,1-1.69-.63,1.94,1.94,0,0,1-.66-1.5,2,2,0,0,1,.9-1.71,4.32,4.32,0,0,1,2.51-.63h1.45v-.84a1.62,1.62,0,0,0-.49-1.25,2,2,0,0,0-1.42-.45,2.23,2.23,0,0,0-1.42.44,1.3,1.3,0,0,0-.56,1H88a1.9,1.9,0,0,1,.82-1.53,3.15,3.15,0,0,1,2-.65,2.88,2.88,0,0,1,2,.62,2.22,2.22,0,0,1,.69,1.72v3.5A4.34,4.34,0,0,0,93.76,57v.09Zm-2.57-.59a2.74,2.74,0,0,0,1.47-.4A2.33,2.33,0,0,0,92.73,55V53.37H91.27a3.66,3.66,0,0,0-1.91.45,1.34,1.34,0,0,0-.7,1.24,1.32,1.32,0,0,0,.46,1,1.74,1.74,0,0,0,1.2.4Z" transform="translate(0 0.01)"/><path class="cls-1" d="M97,47.75v1.89h1.54v.67H97v4.93a1.54,1.54,0,0,0,.22.92.86.86,0,0,0,.74.3,5,5,0,0,0,.66-.07V57a2.66,2.66,0,0,1-.87.12,1.46,1.46,0,0,1-1.21-.48,2.3,2.3,0,0,1-.38-1.44V50.32H94.81v-.67h1.36v-1.9Z" transform="translate(0 0.01)"/><path class="cls-1" d="M100.17,47.51a.53.53,0,0,1,.56-.55.55.55,0,0,1,.41.16.54.54,0,0,1,.15.39.53.53,0,0,1-.15.39.55.55,0,0,1-.41.16.53.53,0,0,1-.56-.55Zm1,9.53h-.82v-7.4h.82Z" transform="translate(0 0.01)"/><path class="cls-1" d="M102.91,53.24a4.34,4.34,0,0,1,.41-1.92,3.1,3.1,0,0,1,2.88-1.8,3,3,0,0,1,2.39,1,4,4,0,0,1,.92,2.75v.17a4.38,4.38,0,0,1-.41,1.93,3.09,3.09,0,0,1-1.17,1.32,3.2,3.2,0,0,1-1.72.46,3,3,0,0,1-2.39-1,4,4,0,0,1-.92-2.75Zm.82.23a3.35,3.35,0,0,0,.69,2.18,2.33,2.33,0,0,0,3.6,0,3.48,3.48,0,0,0,.69-2.25v-.16a3.76,3.76,0,0,0-.31-1.55,2.52,2.52,0,0,0-.88-1.09,2.25,2.25,0,0,0-1.3-.39,2.19,2.19,0,0,0-1.78.86,3.48,3.48,0,0,0-.69,2.25Z" transform="translate(0 0.01)"/><path class="cls-1" d="M112,49.65v1.26a2.93,2.93,0,0,1,1-1,2.69,2.69,0,0,1,1.37-.36,2.22,2.22,0,0,1,1.77.67,3,3,0,0,1,.59,2v4.84h-.81V52.18a2.26,2.26,0,0,0-.42-1.48,1.65,1.65,0,0,0-1.32-.49,2.07,2.07,0,0,0-1.34.47A2.79,2.79,0,0,0,112,52v5.1h-.81v-7.4Z" transform="translate(0 0.01)"/><path class="cls-1" d="M35.53,12.73a8.58,8.58,0,0,0,.77,1.82l-.93,1.17A1,1,0,0,0,35.44,17l1.6,1.6a1,1,0,0,0,1.27.07l1.16-.92a8.44,8.44,0,0,0,1.89.8l.17,1.52a1,1,0,0,0,1,.85h2.26a1,1,0,0,0,1-.85l.17-1.44a8.53,8.53,0,0,0,2-.82l1.12.89a1,1,0,0,0,1.27-.07l1.6-1.6a1,1,0,0,0,.07-1.27L51,14.64a8.33,8.33,0,0,0,.84-2l1.35-.16a1,1,0,0,0,.85-1V9.26a1,1,0,0,0-.85-1l-1.33-.16a8.39,8.39,0,0,0-.8-2l.82-1a1,1,0,0,0-.07-1.27L50.27,2.29A1,1,0,0,0,49,2.22L48,3a8.41,8.41,0,0,0-2.08-.87L45.77.84a1,1,0,0,0-1-.85H42.53a1,1,0,0,0-1,.85l-.15,1.3A8.39,8.39,0,0,0,39.3,3l-1-.82A1,1,0,0,0,37,2.29l-1.6,1.6a1,1,0,0,0-.07,1.27l.87,1.1a8.23,8.23,0,0,0-.79,2L34,8.42a1,1,0,0,0-.85,1v2.26a1,1,0,0,0,.85,1Zm8.18-6.11A3.73,3.73,0,1,1,40,10.35h0A3.74,3.74,0,0,1,43.71,6.62Z" transform="translate(0 0.01)"/><path class="cls-1" d="M65.79,13.25l-1.17-1a.93.93,0,0,0-1.24,0l-.65.61A6.71,6.71,0,0,0,61,12.3l-.18-.89a.94.94,0,0,0-1-.75l-1.53.13a.93.93,0,0,0-.85.9v.91a6.73,6.73,0,0,0-1.65.87L55,13a.93.93,0,0,0-1.23.18l-1,1.18a.93.93,0,0,0,0,1.24l.68.72a7,7,0,0,0-.5,1.65l-1,.2a.94.94,0,0,0-.75,1l.13,1.53a.93.93,0,0,0,.9.85h1A6.83,6.83,0,0,0,54,22.93l-.59.88a.93.93,0,0,0,.29,1.25l1.17,1a.93.93,0,0,0,1.24,0l.77-.72a6.73,6.73,0,0,0,1.58.51l.21,1a.94.94,0,0,0,1,.75l1.53-.13a.93.93,0,0,0,.85-.9v-1a6.89,6.89,0,0,0,1.58-.8l.85.56a.93.93,0,0,0,1.23-.18l1-1.17a.93.93,0,0,0,0-1.24L66,22.06a6.72,6.72,0,0,0,.55-1.68l.93-.19a.94.94,0,0,0,.75-1l-.13-1.53a.93.93,0,0,0-.9-.85h-.94a6.77,6.77,0,0,0-.78-1.54L66,14.5a.93.93,0,0,0-.17-1.23ZM60,22.06a3,3,0,1,1,2.75-3.25A3,3,0,0,1,60,22.06Z" transform="translate(0 0.01)"/><path class="cls-1" d="M41,26.57a.94.94,0,0,0-.85.93v1a.94.94,0,0,0,.82,1l.7.09a5.46,5.46,0,0,0,.5,1.22l-.45.56a.94.94,0,0,0,.06,1.26l.67.68a.94.94,0,0,0,1.26.09l.56-.43a5.52,5.52,0,0,0,1.26.55l.08.73a.94.94,0,0,0,.93.85h1a.94.94,0,0,0,1-.82l.09-.69A5.68,5.68,0,0,0,50,33l.53.43a.94.94,0,0,0,1.26-.06l.68-.67a.94.94,0,0,0,.09-1.26l-.4-.53a5.49,5.49,0,0,0,.57-1.32l.63-.06a.94.94,0,0,0,.85-.93v-1a.94.94,0,0,0-.82-1l-.61-.08a5.69,5.69,0,0,0-.52-1.32l.38-.47a.94.94,0,0,0-.09-1.26l-.67-.68a.94.94,0,0,0-1.33-.09h0l-.46.35a5.56,5.56,0,0,0-1.38-.6l-.06-.59a.94.94,0,0,0-.93-.85h-1a.94.94,0,0,0-1,.82l-.08.59a5.71,5.71,0,0,0-1.43.58l-.47-.39a.94.94,0,0,0-1.26.06l-.69.67a.94.94,0,0,0-.09,1.26l.4.52a5.53,5.53,0,0,0-.54,1.32Zm6.17-1.08a2.49,2.49,0,1,1-2.52,2.46,2.49,2.49,0,0,1,2.52-2.46Z" transform="translate(0 0.01)"/></svg>