<?xml version="1.0" encoding="UTF-8" standalone="no"?>
<svg width="78px" height="60px" viewBox="0 0 78 60" version="1.1" xmlns="http://www.w3.org/2000/svg" xmlns:xlink="http://www.w3.org/1999/xlink">
    <!-- Generator: Sketch 3.8.2 (29753) - http://www.bohemiancoding.com/sketch -->
    <title>logo-movil</title>
    <desc>Created with Sketch.</desc>
    <defs></defs>
    <g id="Page-1" stroke="none" stroke-width="1" fill="none" fill-rule="evenodd">
        <g id="logo-movil">
            <g id="Page-1">
                <g id="logo-movil">
                    <rect id="Rectangle-2" fill="#FFFFFF" x="0" y="0" width="77.1428571" height="60"></rect>
                    <g id="Logo_Left_Tagline_CMYK" transform="translate(14.571429, 0.000000)">
                        <g id="Group">
                            <g id="Shape">
                                <path d="M24.2283049,41.9302326 L24.2283049,41.9302326 C26.6022598,41.9302326 28.8365704,41.5813953 30.9312365,40.9534884 L30.9312365,40.9534884 C33.2353693,40.1860465 35.3998576,38.5813953 36.7264795,36.5581395 L36.7264795,36.5581395 C38.8909678,33.4186047 40.8459896,27.2790698 40.9158117,21.2093023 L40.9158117,21.2093023 C40.8459896,15.1395349 38.8909678,9 36.7264795,5.86046511 L36.7264795,5.86046511 C35.3998576,3.90697674 33.3051915,2.30232558 31.0010588,1.46511628 L31.0010588,1.46511628 C28.9063926,0.837209302 26.6022598,0.488372093 24.2283049,0.488372093 L24.2283049,0.488372093 C21.9241722,0.488372093 19.6200394,0.837209302 17.4555511,1.46511628 L17.4555511,1.46511628 C15.1514183,2.23255814 13.0567522,3.83720931 11.7301304,5.86046511 L11.7301304,5.86046511 C9.56564203,9 7.61062028,15.1395349 7.54079807,21.2093023 L7.54079807,21.2093023 C7.61062028,27.2790698 9.56564203,33.4186047 11.7301304,36.5581395 L11.7301304,36.5581395 C13.0567522,38.5116279 15.1514183,40.1162791 17.4555511,40.9534884 L17.4555511,40.9534884 C19.5502173,41.5813953 21.8543499,41.9302326 24.2283049,41.9302326 L24.2283049,41.9302326 L24.2283049,41.9302326 L24.2283049,41.9302326 L24.2283049,41.9302326 Z" fill="#6F6D5F"></path>
                                <path d="M39.5891899,21.2093023 C39.6590121,25.8139535 38.262568,31.3255814 36.9359461,34.3255814 C35.4696798,37.744186 33.1655471,39.7674418 29.8140813,40.6744186 C27.9987039,41.1627907 26.1135045,41.3720931 24.1584827,41.3720931 L24.1584827,41.3720931 C22.203461,41.3720931 20.3182615,41.1627907 18.5028842,40.6744186 C15.1514183,39.7674418 12.8472856,37.6744186 11.3810193,34.3255814 C10.0543974,31.3953489 8.65795337,25.8139535 8.72777554,21.2093023 L8.72777554,21.2093023 C8.65795337,16.6046511 10.0543974,11.0930233 11.3810193,8.09302326 C12.8472856,4.6744186 15.1514183,2.65116279 18.5028842,1.74418605 C20.3182615,1.25581395 22.203461,1.04651163 24.1584827,1.04651163 L24.1584827,1.04651163 C26.1135045,1.04651163 27.9987039,1.25581395 29.8140813,1.74418605 C33.1655471,2.65116279 35.4696798,4.74418605 36.9359461,8.09302326 C38.262568,11.0930233 39.6590121,16.6744186 39.5891899,21.2093023 L39.5891899,21.2093023 L39.5891899,21.2093023 L39.5891899,21.2093023 L39.5891899,21.2093023 Z" fill="#FFFFFF"></path>
                                <path d="M24.2283049,5.93023256 C25.8342156,5.93023256 27.4401263,6.13953489 28.9063926,6.55813953 L28.9063926,6.55813953 C30.5123033,6.97674418 31.769103,8.09302326 32.3975028,9.55813954 C33.7939469,12.5581395 34.7016356,16.9534884 34.7016356,21.2093023 L34.7016356,21.2093023 C34.7016356,25.4651163 33.7939469,29.8604651 32.3975028,32.8604651 C31.769103,34.3255814 30.4424811,35.4418605 28.9063926,35.8604651 L28.9063926,35.8604651 C27.4401263,36.2790698 25.8342156,36.4883721 24.2283049,36.4883721 L24.1584827,36.4883721 C22.552572,36.4883721 20.9466613,36.2790698 19.480395,35.8604651 L19.480395,35.8604651 C17.8744843,35.4418605 16.6176846,34.3255814 15.9892848,32.8604651 C14.5928407,29.8604651 13.685152,25.4651163 13.685152,21.2093023 L13.685152,21.2093023 C13.685152,16.9534884 14.5928407,12.5581395 15.9892848,9.55813954 C16.6176846,8.09302326 17.9443065,6.97674418 19.480395,6.55813953 L19.480395,6.55813953 C21.0164835,6.20930233 22.6223943,5.93023256 24.2283049,5.93023256 L24.2283049,5.93023256 L24.2283049,5.93023256 L24.2283049,5.93023256 L24.2283049,5.93023256 Z" fill="#6F6D5F"></path>
                                <polygon fill="#FFFFFF" points="21.7147056 20.4418605 21.7147056 21.9767442 16.4780403 21.9767442 16.4780403 20.4418605"></polygon>
                                <path d="M20.5277281,33.6976744 C20.3880837,33.4883721 20.3880837,33.3488372 20.3880837,33.1395349 L23.3904385,33.1395349 C23.3904385,33.5581395 23.1809719,33.9767442 22.7620386,34.255814 C22.3431054,34.5348837 21.6448833,34.6046511 21.1561279,34.3953489 C20.9466613,34.255814 20.6673725,33.9767442 20.5277281,33.6976744 L20.5277281,33.6976744 L20.5277281,33.6976744 L20.5277281,33.6976744 Z" fill="#FFFFFF"></path>
                                <path d="M23.8093717,32.5116279 L22.203461,32.5116279 L22.203461,31.744186 L23.8093717,31.744186 L24.2981271,31.1162791 C24.5774159,31.3953489 24.5774159,31.3953489 24.8567048,31.744186 L26.4626155,31.744186 L26.4626155,32.5116279 L24.8567048,32.5116279 L24.8567048,34.3953489 L23.8093717,34.3953489 L23.8093717,32.5116279 L23.8093717,32.5116279 L23.8093717,32.5116279 L23.8093717,32.5116279 Z" fill="#FFFFFF"></path>
                                <path d="M24.0188383,30.1395349 C24.3679493,30 24.8567048,29.8604651 24.9265269,29.5116279 C24.9265269,29.0232558 25.275638,28.6046511 25.4851046,28.1860465 C25.624749,28.0465116 25.624749,27.9069767 25.624749,27.6976744 C26.1135045,27.6976744 26.6720821,28.1860465 26.8815487,28.6046511 C27.0910153,29.0930233 27.0211931,29.7209302 26.6720821,30.1395349 C26.2531489,30.6279069 25.6945712,30.9069767 25.0661714,30.7674418 C24.6472382,30.7674418 24.2283049,30.5581395 24.0188383,30.1395349 L24.0188383,30.1395349 L24.0188383,30.1395349 L24.0188383,30.1395349 Z" fill="#FFFFFF"></path>
                                <path d="M20.1087949,23.4418605 C19.829506,23.3023256 19.4105728,23.2325582 19.131284,23.3720931 C18.8519952,23.4418605 18.5727063,23.7209302 18.5727063,24.0697674 L18.5727063,26.3023256 C18.5727063,26.4418605 18.5028842,26.5116279 18.2934176,26.5116279 C18.1537731,26.5116279 18.0141287,26.4418605 18.0141287,26.3023256 L18.0141287,24.0697674 C18.0141287,23.8604651 17.9443065,23.5813953 17.8046621,23.4418605 L16.6176846,23.7906977 L16.4780403,23.8604651 C16.757329,24.0697674 16.8969735,24.0697674 16.9667956,24.4186047 L16.9667956,27.2790698 L16.9667956,27.4186047 L17.0366179,27.4883721 L17.0366179,27.5581395 L17.1064401,27.6279069 C17.3159067,27.9069767 17.5951955,28.0465116 17.8744843,28.1162791 C17.9443065,28.1162791 18.1537731,28.1860465 18.2235953,28.1860465 C18.5028842,28.1860465 18.7821729,28.1860465 19.131284,27.9767442 C19.6200394,27.6279069 19.480395,26.9302326 19.5502173,26.0232558 C19.5502173,25.744186 19.5502173,25.6046511 19.7596839,25.4651163 C19.8993283,25.3255814 20.1087949,25.3255814 20.2484392,25.3953489 C20.4579059,25.4651163 20.4579059,25.4651163 20.6673725,25.6046511 C20.5975503,24.6976744 20.5975503,23.6511628 20.1087949,23.4418605 L20.1087949,23.4418605 L20.1087949,23.4418605 L20.1087949,23.4418605 Z" fill="#FFFFFF"></path>
                                <path d="M30.9312365,27 C30.0933701,26.1627907 28.6271038,24.9767442 28.4874594,24.4883721 C28.347815,24.1395349 28.4176371,23.7906977 28.4176371,23.3720931 C28.696926,23.1627907 28.8365704,23.0232558 29.1856815,22.8139535 C29.1856815,23.3720931 29.1158592,24 29.3951481,24.3488372 C30.0933701,25.0465116 30.7217699,25.6744186 31.3501698,26.3023256 C31.5596364,26.5813953 31.769103,26.9302326 31.6294586,27.2093023 C31.5596364,27.3488372 31.4898141,27.5581395 31.3501698,27.6976744 C31.2105254,27.4186047 31.0708809,27.2093023 30.9312365,27 L30.9312365,27 L30.9312365,27 L30.9312365,27 Z" fill="#FFFFFF"></path>
                                <polygon fill="#FFFFFF" points="26.1135045 22.8139535 27.6495929 22.8139535 27.6495929 27.3488372 26.1135045 27.3488372 26.1135045 22.8139535 26.1135045 22.8139535"></polygon>
                                <path d="M29.5347925,23.2325582 C29.6744368,23.0232558 29.7442591,22.9534884 29.9537257,22.8139535 L30.3726589,23.3023256 L30.3726589,24.5581395 L30.3726589,24.5581395 C30.9312365,24.2790698 30.7915922,23.5116279 30.7915922,22.8139535 C31.1407031,23.0930233 31.2803475,23.2325582 31.5596364,23.5116279 C31.6992807,24.2790698 31.2803475,24.6976744 30.9312365,25.255814 L29.5347925,23.9302326 L29.5347925,23.2325582 L29.5347925,23.2325582 L29.5347925,23.2325582 L29.5347925,23.2325582 Z" fill="#FFFFFF"></path>
                                <path d="M30.7915922,19.744186 L31.0010588,18.9069767 L31.6992807,18.8372093 L31.6992807,16.6744186 C31.419992,16.744186 31.3501698,16.744186 31.1407031,16.744186 L31.1407031,15.1395349 C30.7915922,15.2093023 30.4424811,15.3488372 30.0235479,15.4186047 L30.0235479,18.1395349 L30.0235479,18.1395349 C30.0235479,18.2790698 29.8140813,18.2790698 29.7442591,18.2790698 L29.6744368,18.2790698 C29.5347925,18.2790698 29.3951481,18.2093023 29.3951481,18.0697674 L29.3951481,15.4883721 L28.347815,15.6279069 L28.347815,16.744186 C27.9987039,17.5116279 27.4401263,18.2093023 26.8815487,18.9069767 C27.4401263,18.9767442 27.5099485,18.9767442 28.0685262,18.9767442 L28.4176371,19.744186 L30.7915922,19.744186 L30.7915922,19.744186 L30.7915922,19.744186 L30.7915922,19.744186 Z" fill="#FFFFFF"></path>
                                <path d="M18.5727063,19.1860465 C18.5727063,18.4883721 18.5028842,18 18.5028842,17.3023256 C18.7123508,17.2325582 18.9218174,17.3720931 19.131284,17.5116279 C19.131284,18.4186047 19.131284,18.4186047 19.0614618,19.3255814 L18.5727063,19.3255814 L18.5727063,19.1860465 L18.5727063,19.1860465 L18.5727063,19.1860465 L18.5727063,19.1860465 Z" fill="#FFFFFF"></path>
                                <path d="M18.5028842,15.1395349 C18.3632397,14.4418605 18.3632397,14.3720931 18.2934176,13.8837209 L17.8744843,13.8837209 L17.8744843,13.3953489 L19.829506,13.3953489 L19.829506,13.8837209 L19.3407506,13.8837209 L19.131284,15.5581395 C18.9218174,15.3488372 18.7123508,15.2093023 18.5028842,15.1395349 L18.5028842,15.1395349 L18.5028842,15.1395349 L18.5028842,15.1395349 Z" fill="#FFFFFF"></path>
                                <path d="M18.3632397,13.0465116 C17.7348399,12.3488372 17.6650177,11.3023256 17.8046621,10.3255814 L17.8046621,10.3255814 C17.9443065,10.6744186 18.1537731,10.9534884 18.5028842,11.0930233 C18.4330619,10.8837209 18.2934176,10.744186 18.2235953,10.5348837 C18.083951,10.1162791 18.083951,9.62790694 18.3632397,9.27906977 C18.5727063,9 18.7821729,8.9302326 19.0614618,8.79069771 C18.9218174,9.13953489 18.9218174,9.48837206 19.0614618,9.83720931 C19.2709284,9.69767443 19.2709284,9.69767443 19.4105728,9.55813954 C19.480395,9.48837206 19.480395,9.48837206 19.5502173,9.48837206 C19.829506,10.0465116 20.1087949,10.8139535 19.9691505,11.4418605 L19.829506,11.7209302 C19.7596839,11.2325582 19.6898616,11.0232558 19.4105728,10.8837209 C19.3407506,11.1627907 19.5502173,11.3720931 19.5502173,11.7209302 C19.6898616,12.2790698 19.5502173,12.7674418 19.2709284,13.1162791 L18.3632397,13.1162791 L18.3632397,13.0465116 L18.3632397,13.0465116 L18.3632397,13.0465116 Z" fill="#FFFFFF"></path>
                                <path d="M26.5324377,11.7906977 L25.8342156,12.5581395 C25.624749,12.3488372 25.624749,12.3488372 25.4851046,12.1395349 C25.8342156,11.7906977 25.9040379,11.7209302 26.2531489,11.3023256" fill="#FFFFFF"></path>
                                <path d="M27.3703041,9.9767442 C27.5099485,9.34883717 27.5797707,8.58139534 28.2779928,8.30232558 C28.5572816,8.23255814 28.9063926,8.23255814 29.1158592,8.44186047 C29.3951481,8.65116283 29.5347925,9 29.4649702,9.34883717 C29.2555036,10.1162791 28.4176371,10.255814 27.7194152,10.3953489 L27.3703041,9.9767442 L27.3703041,9.9767442 L27.3703041,9.9767442 L27.3703041,9.9767442 Z" fill="#FFFFFF"></path>
                                <polygon fill="#FFFFFF" points="32.118214 20.4418605 32.118214 21.9767442 26.8117265 21.9767442 26.8117265 20.4418605"></polygon>
                                <path d="M19.3407506,30.7674418 C19.131284,29.7906977 20.3182615,29.4418605 20.5975503,28.6046511 C20.8070169,27.2790698 20.8768391,25.8139535 21.8543499,24.7674418 C21.9241722,22.744186 22.6223943,21 24.0188383,19.5348837 C23.9490161,19.1162791 23.7395495,18.6976744 23.5999051,18.2790698 C23.3904385,18.2790698 23.3206162,18.2093023 23.1111496,18.0697674 C22.9715052,17.9302326 22.9715052,17.7906977 22.901683,17.5813953 C22.4129276,18.2093023 21.7845278,18.9069767 21.1561279,19.255814 C21.0164835,19.3255814 20.8768391,19.1860465 20.6673725,18.9767442 C19.829506,18.3488372 19.6898616,16.8837209 18.4330619,16.8837209 C17.8744843,16.6744186 17.8744843,16.0465116 17.8046621,15.4883721 C18.0141287,15.3488372 18.3632397,15.3488372 18.6425286,15.4186047 C19.4105728,15.8372093 19.9691505,16.744186 20.6673725,17.3023256 C20.8768391,17.4418605 21.0164835,17.6511628 21.2259501,17.7209302 C21.7147056,17.3023256 22.1336388,16.9534884 22.4129276,16.3255814 C22.6223943,15.9767442 23.0413275,15.7674418 23.4602607,15.7674418 L23.7395495,15.4186047 L23.5999051,14.5116279 C23.3206162,14.0930233 23.0413275,13.744186 22.8318609,13.255814 C22.9715052,12.7674418 22.9715052,12.1395349 23.5300829,11.8604651 C23.8791939,11.6511628 24.1584827,12.1395349 24.4377716,11.8604651 C24.6472382,11.7906977 24.7868825,11.8604651 24.9265269,12 C25.1359935,12.3488372 25.3454602,12.6976744 25.4152824,13.1162791 C25.275638,13.5348837 25.0661714,13.8837209 24.9265269,14.3023256 C24.8567048,14.3720931 24.7868825,14.4418605 24.7170603,14.4418605 C24.7868825,14.5813953 24.7868825,14.7906977 24.9265269,14.9302326 C25.0661714,14.9302326 25.2058158,15 25.4152824,14.9302326 C25.5549268,14.5116279 26.0436822,14.3023256 26.4626155,14.1627907 L27.3703041,13.6046511 C27.2306597,12.9069767 27.6495929,12.3488372 27.4401263,11.7209302 C26.9513709,11.5116279 26.8117265,10.9534884 26.6720821,10.4651163 C26.7419043,10.1860465 26.8815487,9.90697671 27.0910153,9.62790694 L27.0910153,9.62790694 C27.5797707,10.1860465 27.9987039,10.744186 28.1383484,11.4418605 C28.2081705,12.3488372 28.2779928,13.255814 28.2779928,14.1627907 C27.7892373,14.6511628 27.2306597,14.9302326 26.6720821,15.2790698 L26.2531489,16.0465116 C26.1833266,16.8139535 25.97386,17.5813953 25.8342156,18.2790698 C26.1833266,19.1860465 26.6022598,20.4418605 26.2531489,21.2790698 C26.0436822,21.7674418 25.5549268,22.0465116 25.2058158,22.3255814 L24.2981271,23.0232558 C25.2058158,24 24.9963492,25.1162791 24.9963492,26.5813953 C24.9963492,26.9302326 25.624749,27.2093023 25.275638,27.6279069 C24.9963492,28.0465116 24.5774159,28.4651163 24.6472382,29.0232558 C24.3679493,29.5116279 23.7395495,29.5813953 23.3904385,29.5813953 C23.3206162,29.5813953 23.2507941,29.5116279 23.2507941,29.4418605 C23.3206162,29.2325582 23.5300829,29.0232558 23.5999051,28.8139535 C23.9490161,28.3255814 23.7395495,27.6279069 24.1584827,27.2093023 C23.8093717,26.1627907 23.3206162,25.1162791 23.1809719,24 L23.1809719,23.9302326 C22.901683,24.4883721 23.0413275,24.9767442 23.1809719,25.3953489 C22.2732832,26.5116279 21.3655946,27.5581395 21.3655946,29.0232558 C21.0164835,29.7209302 20.4579059,30.2790698 20.1786171,31.0465116 C20.1087949,31.1860465 19.8993283,31.0465116 19.829506,30.9767442 C19.480395,31.1162791 19.4105728,30.9767442 19.3407506,30.7674418 L19.3407506,30.7674418 L19.3407506,30.7674418 L19.3407506,30.7674418 Z" fill="#FFFFFF"></path>
                                <path d="M29.046037,25.9534884 C29.8839035,26.7906977 31.3501698,27.9767442 31.4898141,28.4651163 C31.6294586,28.8139535 31.5596364,29.1627907 31.5596364,29.5813953 C31.2803475,29.7906977 31.1407031,29.9302326 30.7915922,30.1395349 C30.7915922,29.5813953 30.9312365,28.9534884 30.5821255,28.6046511 C29.8839035,27.9069767 29.2555036,27.2790698 28.6271038,26.6511628 C28.4176371,26.3720931 28.2081705,26.0232558 28.347815,25.744186 C28.4176371,25.6046511 28.4874594,25.3953489 28.6271038,25.255814 C28.696926,25.5348837 28.8365704,25.744186 29.046037,25.9534884 L29.046037,25.9534884 L29.046037,25.9534884 L29.046037,25.9534884 Z" fill="#FFFFFF"></path>
                                <path d="M30.3726589,29.7209302 C30.2330145,29.9302326 30.1631923,30 29.9537257,30.1395349 L29.5347925,29.6511628 L29.5347925,28.3255814 L29.5347925,28.3255814 C28.9762149,28.6046511 29.1158592,29.3720931 29.1158592,30 C28.7667482,29.7209302 28.6271038,29.5813953 28.347815,29.3023256 C28.2081705,28.5348837 28.6271038,28.1162791 28.9762149,27.5581395 L30.3726589,28.8837209 L30.3726589,29.7209302 L30.3726589,29.7209302 L30.3726589,29.7209302 L30.3726589,29.7209302 Z" fill="#FFFFFF"></path>
                                <path d="M28.1383484,33.6976744 C28.2779928,33.4883721 28.2779928,33.3488372 28.2779928,33.1395349 L25.275638,33.1395349 C25.275638,33.5581395 25.4851046,33.9767442 25.9040379,34.255814 C26.3229711,34.5348837 27.0211931,34.6046511 27.5099485,34.3953489 C27.7194152,34.255814 27.9987039,33.9767442 28.1383484,33.6976744 L28.1383484,33.6976744 L28.1383484,33.6976744 L28.1383484,33.6976744 Z" fill="#FFFFFF"></path>
                                <path d="M24.7170603,40.3255814 C24.7170603,39.4883721 25.5549268,39.0697674 26.0436822,38.5116279 C26.1833266,38.3720931 26.2531489,38.0930233 26.1135045,37.8837209 C26.0436822,37.744186 25.97386,37.6744186 25.8342156,37.6744186 C25.624749,37.6046511 25.4851046,37.6744186 25.4152824,37.744186 C25.275638,37.8837209 25.2058158,38.0930233 25.2058158,38.3023256 L24.6472382,38.3023256 C24.5774159,37.9534884 24.6472382,37.6744186 24.8567048,37.4651163 C25.1359935,37.1860465 25.5549268,37.1162791 25.9040379,37.1162791 C26.1833266,37.1860465 26.6022598,37.3255814 26.7419043,37.6744186 C26.8815487,38.0232558 26.8815487,38.5116279 26.6022598,38.7906977 C26.2531489,39.1395349 25.8342156,39.3488372 25.5549268,39.7674418 L27.0211931,39.6976744 L27.0211931,40.1860465 L24.7170603,40.3255814 L24.7170603,40.3255814 L24.7170603,40.3255814 L24.7170603,40.3255814 Z" fill="#6F6D5F"></path>
                                <path d="M19.6200394,36.6976744 L19.6200394,36.6976744 L18.6425286,39.6279069 L18.0141287,39.4186047 L18.6425286,37.4651163 L18.6425286,37.4651163 C18.4330619,37.3953489 18.083951,37.3255814 17.8744843,37.1860465 L18.0141287,36.8372093 C18.2934176,36.9069767 18.6425286,36.9767442 18.9218174,36.7674418 C18.9916396,36.6976744 19.0614618,36.6976744 19.0614618,36.6279069 L19.6200394,36.6976744 L19.6200394,36.6976744 L19.6200394,36.6976744 L19.6200394,36.6976744 Z" fill="#6F6D5F"></path>
                                <path d="M31.0708809,38.3023256 C31.0010588,38.0232558 30.8614143,37.8139535 30.5123033,37.6744186 L30.3028367,37.6046511 C30.5123033,37.4651163 30.6519477,37.1860465 30.5821255,36.9069767 C30.5123033,36.6279069 30.3028367,36.4186047 30.0235479,36.3488372 C29.8140813,36.2790698 29.5347925,36.2790698 29.2555036,36.3488372 C28.9762149,36.4186047 28.7667482,36.5581395 28.5572816,36.6976744 C28.347815,36.9069767 28.2779928,37.1860465 28.347815,37.4651163 C28.4176371,37.744186 28.696926,37.8837209 28.9063926,37.8837209 L28.7667482,38.0232558 C28.5572816,38.2325582 28.4874594,38.5116279 28.5572816,38.7906977 C28.6271038,39.1395349 28.9063926,39.3488372 29.1856815,39.4883721 C29.3951481,39.5581395 29.6744368,39.5581395 29.9537257,39.4883721 C30.2330145,39.4186047 30.5123033,39.2790698 30.6519477,39.1395349 C31.0708809,38.9302326 31.1407031,38.5813953 31.0708809,38.3023256 L31.0708809,38.3023256 L31.0708809,38.3023256 L31.0708809,38.3023256 Z M29.1158592,37.4651163 C29.046037,37.3255814 29.046037,37.1162791 29.1856815,36.9767442 C29.2555036,36.9069767 29.3951481,36.8372093 29.4649702,36.8372093 L29.8140813,36.8372093 C29.9537257,36.9069767 30.0933701,37.0465116 30.0933701,37.255814 C30.0933701,37.3953489 30.0235479,37.4651163 29.9537257,37.5348837 C29.8839035,37.6046511 29.7442591,37.6744186 29.6744368,37.6744186 L29.3253258,37.6744186 C29.2555036,37.6046511 29.1158592,37.5348837 29.1158592,37.4651163 L29.1158592,37.4651163 L29.1158592,37.4651163 L29.1158592,37.4651163 Z M30.3726589,38.8604651 C30.3028367,38.9302326 30.1631923,39 30.0235479,39.0697674 C29.8839035,39.1395349 29.7442591,39.1395349 29.6046147,39.0697674 C29.4649702,39 29.3253258,38.9302326 29.3253258,38.7906977 C29.2555036,38.5813953 29.3253258,38.3720931 29.4649702,38.2325582 C29.5347925,38.1627907 29.6744368,38.1627907 29.7442591,38.0930233 L29.7442591,38.0930233 L30.0933701,38.0930233 C30.3028367,38.0930233 30.4424811,38.3023256 30.5123033,38.5116279 C30.5123033,38.5813953 30.4424811,38.7209302 30.3726589,38.8604651 L30.3726589,38.8604651 L30.3726589,38.8604651 L30.3726589,38.8604651 Z" fill="#6F6D5F"></path>
                                <path d="M23.2507941,39.3488372 C23.2507941,39.0697674 23.1809719,38.7906977 22.901683,38.5813953 L22.7620386,38.5116279 C22.9715052,38.4418605 23.2507941,38.2325582 23.2507941,37.9534884 C23.3206162,37.6744186 23.1809719,37.3953489 22.901683,37.255814 C22.6922164,37.1162791 22.4129276,37.0465116 22.1336388,37.0465116 C21.8543499,37.0465116 21.5750612,37.0465116 21.3655946,37.1860465 C21.0863057,37.3255814 20.9466613,37.5348837 20.9466613,37.8837209 C20.9466613,38.1627907 21.1561279,38.3720931 21.3655946,38.5116279 L21.2259501,38.5813953 C20.9466613,38.7209302 20.8070169,39 20.8070169,39.2790698 C20.8070169,39.6279069 20.9466613,39.9069767 21.2259501,40.1162791 C21.4354167,40.255814 21.7147056,40.3255814 21.9939944,40.3255814 C22.2732832,40.3255814 22.552572,40.3255814 22.7620386,40.1860465 C23.0413275,39.9767442 23.2507941,39.6976744 23.2507941,39.3488372 L23.2507941,39.3488372 L23.2507941,39.3488372 L23.2507941,39.3488372 Z M21.5750612,38.0232558 C21.5750612,37.8837209 21.5750612,37.6744186 21.7845278,37.6046511 C21.8543499,37.5348837 21.9939944,37.5348837 22.1336388,37.5348837 C22.2732832,37.5348837 22.3431054,37.6046511 22.4827498,37.6744186 C22.6223943,37.744186 22.6922164,37.9534884 22.6223943,38.0930233 C22.6223943,38.2325582 22.4827498,38.2325582 22.4129276,38.3023256 C22.3431054,38.3720931 22.203461,38.3720931 22.0638165,38.3720931 C21.9241722,38.3720931 21.8543499,38.3720931 21.7845278,38.3023256 C21.7147056,38.1627907 21.6448833,38.0930233 21.5750612,38.0232558 L21.5750612,38.0232558 L21.5750612,38.0232558 L21.5750612,38.0232558 Z M22.4129276,39.6976744 C22.3431054,39.7674418 22.1336388,39.7674418 21.9939944,39.7674418 C21.8543499,39.7674418 21.7147056,39.6976744 21.5750612,39.6279069 C21.4354167,39.5581395 21.3655946,39.4186047 21.3655946,39.2790698 C21.3655946,39.0697674 21.5052389,38.8604651 21.7147056,38.8604651 C21.7845278,38.8604651 21.9241722,38.7906977 22.0638165,38.7906977 L22.0638165,38.7906977 C22.203461,38.7906977 22.2732832,38.8604651 22.3431054,38.8604651 C22.552572,38.9302326 22.6223943,39.1395349 22.6223943,39.3488372 C22.6223943,39.4883721 22.552572,39.6279069 22.4129276,39.6976744 L22.4129276,39.6976744 L22.4129276,39.6976744 L22.4129276,39.6976744 Z" fill="#6F6D5F"></path>
                                <polygon fill="#6F6D5F" points="36.9359461 9.9767442 34.0732358 11.2325582 33.7939469 10.6046511 36.6566573 9.41860466"></polygon>
                                <path d="M26.2531489,5.09302326 L25.5549268,1.95348837 L26.2531489,2.02325582 C26.3927932,2.79069767 26.5324377,3.69767442 26.6720821,4.3255814 C26.9513709,3.69767442 27.3004819,2.86046511 27.5797707,2.16279069 L28.2081705,2.23255814 L26.8815487,5.16279069 L26.2531489,5.09302326 L26.2531489,5.09302326 L26.2531489,5.09302326 L26.2531489,5.09302326 Z" fill="#6F6D5F"></path>
                                <polygon fill="#6F6D5F" points="14.2437297 6.90697674 13.5455077 8.16279069 12.98693 7.81395349 13.7549743 6.41860465 13.336041 6.13953489 12.2188857 8.16279069 14.9419517 9.62790694 16.059107 7.6744186 15.5703516 7.39534884 14.8023073 8.86046511 14.0342631 8.37209302 14.7324851 7.18604651"></polygon>
                                <path d="M12.637819,19.9534884 C12.4981746,19.6046511 12.1490636,19.4651163 11.7999525,19.5348837 C11.5206637,19.6046511 11.2413749,19.8139535 11.1017305,20.0930233 C11.0319083,19.8837209 10.8922639,19.6744186 10.612975,19.6046511 C10.3336863,19.5348837 9.98457523,19.6744186 9.8449308,19.8837209 C9.6354642,20.1627907 9.70528637,21.2790698 9.70528637,21.9767442 L12.7774634,21.9767442 L12.7774634,21.7674418 C12.7076412,20.5813953 12.7774634,20.4418605 12.637819,19.9534884 L12.637819,19.9534884 L12.637819,19.9534884 L12.637819,19.9534884 Z M10.8922639,21.3488372 L10.1242197,21.3488372 C10.1242197,20.6511628 10.0543974,20.3023256 10.4733307,20.2325582 C10.7526195,20.2325582 10.8224417,20.3023256 10.8224417,20.4418605 C10.8922639,20.5813953 10.8922639,20.7209302 10.8922639,21.3488372 L10.8922639,21.3488372 L10.8922639,21.3488372 L10.8922639,21.3488372 Z M12.2188857,21.3488372 L11.3810193,21.3488372 L11.3810193,21.3488372 C11.3810193,20.6511628 11.3111971,20.2325582 11.7301304,20.1627907 C11.8697747,20.0930233 12.0792413,20.1627907 12.1490636,20.2325582 C12.288708,20.4418605 12.2188857,20.7209302 12.2188857,21.3488372 L12.2188857,21.3488372 L12.2188857,21.3488372 L12.2188857,21.3488372 Z" fill="#6F6D5F"></path>
                                <polygon fill="#6F6D5F" points="36.9359461 11.7209302 37.4247015 11.5813953 38.0531013 13.9534884 37.564346 14.0930233 37.2850571 13.1860465 34.84128 13.8139535 34.7016356 13.1860465 37.1454127 12.5581395"></polygon>
                                <path d="M20.6673725,4.46511628 L20.3182615,2.30232558 L19.6898616,2.37209302 L20.0389726,4.53488372 C20.1087949,4.74418605 20.1786171,4.95348837 20.3880837,5.09302326 C20.6673725,5.23255814 21.0164835,5.30232558 21.3655946,5.23255814 L21.2957723,4.74418605 L21.0164835,4.74418605 C20.8768391,4.81395349 20.7371947,4.6744186 20.6673725,4.46511628 L20.6673725,4.46511628 L20.6673725,4.46511628 Z M22.4827498,4.18604651 L22.1336388,2.02325582 L21.5052389,2.09302326 L21.8543499,4.25581395 C21.8543499,4.39534884 21.7845278,4.60465116 21.6448833,4.6744186 C21.5750612,4.74418605 21.4354167,4.74418605 21.3655946,4.74418605 L21.4354167,5.23255814 C21.7845278,5.16279069 22.0638165,5.02325582 22.3431054,4.81395349 C22.4827498,4.60465116 22.4827498,4.39534884 22.4827498,4.18604651 L22.4827498,4.18604651 L22.4827498,4.18604651 Z" fill="#6F6D5F"></path>
                                <path d="M38.3323902,16.0465116 L35.1205688,15.4186047 L35.190391,16.0465116 L35.8886131,16.1860465 L36.0282574,17.3023256 L35.3998576,17.5813953 L35.4696798,18.2093023 L38.3323902,16.744186 L38.3323902,16.0465116 L38.3323902,16.0465116 L38.3323902,16.0465116 L38.3323902,16.0465116 Z M36.5868351,17.0232558 L36.4471907,16.255814 L37.7738126,16.4651163 L37.7738126,16.4651163 L37.7738126,16.4651163 L37.7738126,16.4651163 L37.7738126,16.4651163 L36.5868351,17.0232558 L36.5868351,17.0232558 L36.5868351,17.0232558 L36.5868351,17.0232558 Z" fill="#6F6D5F"></path>
                                <path d="M37.913457,21.3488372 L37.913457,21.3488372 L38.0531013,21.3488372 L38.1229236,21.3488372 C38.3323902,21.2093023 38.4022124,21 38.3323902,20.7209302 C38.3323902,20.5116279 38.262568,20.3023256 38.0531013,20.1627907 C37.913457,20.1627907 37.8436347,20.0930233 37.7039904,20.2325582 C37.3548794,20.7209302 37.564346,21.8372093 36.7264795,22.0465116 C36.3075463,22.1162791 36.0282574,21.9069767 35.8187908,21.6279069 C35.5395021,21.1395349 35.5395021,20.3720931 35.8187908,19.8837209 C36.0282574,19.6046511 36.237724,19.4651163 36.5868351,19.4651163 L36.6566573,20.0232558 C36.4471907,20.0232558 36.3075463,20.1627907 36.1679019,20.3023256 C36.0282574,20.5813953 36.0980797,21.0697674 36.3075463,21.2790698 C36.3773685,21.3488372 36.5868351,21.3488372 36.6566573,21.2790698 C37.0057683,21 36.9359461,20.3720931 37.1454127,19.9534884 C37.2152349,19.744186 37.3548794,19.6046511 37.564346,19.4651163 C37.913457,19.3255814 38.262568,19.3953489 38.5418568,19.6046511 C38.96079,20.0232558 38.96079,20.7209302 38.7513234,21.2093023 C38.6116791,21.5581395 38.262568,21.7674418 37.913457,21.7674418 L37.913457,21.3488372 L37.913457,21.3488372 L37.913457,21.3488372 L37.913457,21.3488372 L37.913457,21.3488372 Z" fill="#6F6D5F"></path>
                                <path d="M12.1490636,17.1627907 L9.98457523,16.8139535 L9.91475306,17.4418605 L12.0792413,17.7906977 C12.288708,17.7906977 12.4981746,17.7906977 12.7076412,17.5813953 C12.98693,17.3720931 13.1265744,17.0232558 13.1265744,16.6744186 L12.637819,16.6046511 C12.637819,16.6744186 12.5679968,16.8139535 12.5679968,16.8837209 C12.4981746,17.0232558 12.3585302,17.1627907 12.1490636,17.1627907 L12.1490636,17.1627907 L12.1490636,17.1627907 Z M12.98693,15.6976744 C12.8472856,15.4883721 12.637819,15.3488372 12.4283523,15.3488372 L10.2638641,15 L10.1940418,15.6279069 L12.3585302,15.9767442 C12.4981746,15.9767442 12.637819,16.1860465 12.7076412,16.3255814 L12.7076412,16.6046511 L13.1963967,16.6744186 C13.1963967,16.3255814 13.1963967,15.9767442 12.98693,15.6976744 L12.98693,15.6976744 L12.98693,15.6976744 Z" fill="#6F6D5F"></path>
                                <path d="M16.5478624,3.55813953 L15.9892848,3.90697674 L16.6875069,7.11627907 L17.2460845,6.76744186 L17.1064401,6.06976744 L18.083951,5.51162791 L18.6425286,6 L19.2011062,5.65116279 L16.5478624,3.55813953 L16.5478624,3.55813953 L16.5478624,3.55813953 L16.5478624,3.55813953 Z M16.9667956,5.58139535 L16.6176846,4.25581395 L16.6176846,4.25581395 L16.6176846,4.25581395 L16.6176846,4.25581395 L16.6176846,4.25581395 L17.5951955,5.16279069 L16.9667956,5.58139535 L16.9667956,5.58139535 L16.9667956,5.58139535 L16.9667956,5.58139535 Z" fill="#6F6D5F"></path>
                                <polygon fill="#6F6D5F" points="31.4898141 4.53488372 30.1631923 4.04651163 30.4424811 3.41860465 31.9087474 4.04651163 32.118214 3.55813953 30.0235479 2.72093023 28.8365704 5.51162791 30.9312365 6.41860465 31.1407031 5.93023256 29.6744368 5.30232558 29.9537257 4.53488372 31.2803475 5.02325582"></polygon>
                                <path d="M12.7774634,11.3720931 C12.7774634,11.1627907 12.7774634,10.9534884 12.5679968,10.8139535 C12.4283523,10.6046511 12.1490636,10.5348837 11.8697747,10.6046511 C11.1715527,10.6744186 11.1017305,11.5116279 10.6827973,12.7674418 L13.6153299,13.6744186 L13.8247965,13.0465116 L12.637819,12.6976744 L12.5679968,12.6976744 C12.637819,12.4186047 12.7774634,12.0697674 12.8472856,12 C13.0567522,11.5116279 13.8247965,12 14.1739075,11.9302326 L14.3833741,11.3023256 C13.8247965,11.2325582 13.1265744,10.8139535 12.7774634,11.3720931 L12.7774634,11.3720931 L12.7774634,11.3720931 L12.7774634,11.3720931 Z M12.1490636,12.4883721 L11.3810193,12.2790698 C11.5206637,11.7209302 11.6603081,11.2325582 12.0094191,11.2325582 C12.1490636,11.2325582 12.288708,11.3023256 12.3585302,11.3720931 C12.4981746,11.5813953 12.288708,11.9302326 12.1490636,12.4883721 L12.1490636,12.4883721 L12.1490636,12.4883721 L12.1490636,12.4883721 Z" fill="#6F6D5F"></path>
                                <path d="M34.2128801,5.23255814 L31.769103,7.11627907 L32.1880362,7.60465116 L33.1655471,6.83720931 L33.2353693,6.83720931 C33.4448359,7.04651163 33.6543025,7.39534884 33.6543025,7.46511628 C33.9335913,7.95348837 33.0957249,8.30232558 32.9560804,8.58139534 L33.3750137,9.0697674 C33.6543025,8.65116283 34.4223467,8.30232558 34.2128801,7.6744186 C34.3525245,7.81395349 34.5619911,7.88372093 34.7714577,7.81395349 C34.9809244,7.81395349 35.2602132,7.60465116 35.3998576,7.39534884 C35.6093242,6.83720931 35.0507466,6.27906977 34.2128801,5.23255814 L34.2128801,5.23255814 L34.2128801,5.23255814 L34.2128801,5.23255814 Z M34.7016356,7.18604651 C34.5619911,7.3255814 34.492169,7.3255814 34.3525245,7.3255814 C34.1430579,7.3255814 33.9335913,6.97674418 33.5844803,6.55813953 L34.2128801,6.06976744 C34.5619911,6.48837209 34.9111022,6.90697674 34.7016356,7.18604651 L34.7016356,7.18604651 L34.7016356,7.18604651 L34.7016356,7.18604651 Z" fill="#6F6D5F"></path>
                                <polygon fill="#6F6D5F" points="48.0376766 51.6279069 48.0376766 44.6511628 0.139644409 44.6511628 0.139644409 51.6279069"></polygon>
                                <polygon fill="#BD0E2E" points="48.0376766 59.7906977 48.0376766 52.744186 0.139644409 52.744186 0.139644409 59.7906977"></polygon>
                                <path d="M13.4058633,49.8139535 C13.5455077,49.8139535 13.685152,49.8139535 13.8247965,49.744186 C14.0342631,49.6744186 14.2437297,49.4651163 14.2437297,49.1860465 L14.2437297,45.8372093 L15.1514183,45.8372093 L15.1514183,49.1860465 C15.1514183,49.5348837 15.0815961,49.8139535 14.7324851,50.0930233 C14.3833741,50.4418605 13.8247965,50.5116279 13.336041,50.5116279 L13.336041,50.5116279 C12.8472856,50.5116279 12.288708,50.3720931 11.939597,50.0930233 C11.5904859,49.8139535 11.5206637,49.5348837 11.5206637,49.1860465 L11.5206637,45.8372093 L12.4283523,45.8372093 L12.4283523,49.1860465 C12.4283523,49.4651163 12.637819,49.6744186 12.9171078,49.744186 C13.1265744,49.8139535 13.2662188,49.8139535 13.4058633,49.8139535" fill="#FFFFFF"></path>
                                <polygon fill="#FFFFFF" points="29.4649702 47.5813953 27.3703041 47.5813953 27.3703041 46.6046511 29.7442591 46.6046511 29.7442591 45.8372093 26.3927932 45.8372093 26.3927932 50.3720931 29.7442591 50.3720931 29.7442591 49.6046511 27.3703041 49.6046511 27.3703041 48.3488372 29.4649702 48.3488372"></polygon>
                                <path d="M41.7536782,49.8139535 C41.8933227,49.8139535 42.032967,49.8139535 42.1726114,49.744186 C42.382078,49.6744186 42.5915446,49.3953489 42.5915446,49.1860465 L42.5915446,45.8372093 L43.5690555,45.8372093 L43.5690555,49.1860465 C43.5690555,49.5348837 43.4992333,49.8139535 43.1501223,50.0930233 C42.8010113,50.4418605 42.2424337,50.5116279 41.7536782,50.5116279 L41.7536782,50.5116279 C41.2649228,50.5116279 40.7063451,50.3720931 40.3572341,50.0930233 C40.0081231,49.8139535 39.9383009,49.5348837 39.9383009,49.1860465 L39.9383009,45.8372093 L40.9158117,45.8372093 L40.9158117,49.1860465 C40.9158117,49.4651163 41.1252783,49.6744186 41.334745,49.744186 C41.4743894,49.744186 41.6140338,49.8139535 41.7536782,49.8139535" fill="#FFFFFF"></path>
                                <path d="M4.53844329,45.8372093 L6.77275383,45.8372093 C7.47097587,45.8372093 8.0295535,46.1860465 8.09937571,46.8837209 C8.16919791,47.3720931 8.0295535,47.7906977 7.40115366,47.9302326 C7.88990909,48.0697674 8.23902012,48.5581395 8.23902012,49.1162791 C8.23902012,49.6046511 7.82008689,50.3023256 6.70293162,50.3023256 L4.53844329,50.3023256 L4.53844329,45.8372093 L4.53844329,45.8372093 L4.53844329,45.8372093 L4.53844329,45.8372093 Z" fill="#FFFFFF"></path>
                                <path d="M5.51595415,48.3488372 L6.70293162,48.3488372 C7.05204264,48.3488372 7.26150926,48.6976744 7.26150926,48.9767442 C7.26150926,49.255814 7.12186485,49.5348837 6.77275383,49.6046511 C6.42364281,49.6744186 6.42364281,49.6046511 5.44613194,49.6744186 L5.51595415,48.3488372" fill="#6F6D5F"></path>
                                <path d="M5.51595415,46.5348837 L6.63310941,46.5348837 C6.91239824,46.5348837 7.19168705,46.6744186 7.19168705,47.0232558 C7.19168705,47.3720931 6.98222043,47.6511628 6.63310941,47.6511628 L5.51595415,47.6511628 L5.51595415,46.5348837 L5.51595415,46.5348837 L5.51595415,46.5348837 L5.51595415,46.5348837 Z" fill="#6F6D5F"></path>
                                <path d="M35.3998576,45.8372093 L34.4223467,45.8372093 L32.8164361,50.3720931 L33.7241247,50.3720931 L34.0732358,49.3953489 L35.7489687,49.3953489 L36.0980797,50.3720931 L37.0057683,50.3720931 L35.3998576,45.8372093 L35.3998576,45.8372093 L35.3998576,45.8372093 L35.3998576,45.8372093 Z M34.3525245,48.6279069 L34.9111022,46.744186 L34.9111022,46.744186 L34.9111022,46.744186 L34.9111022,46.744186 L34.9111022,46.744186 L35.4696798,48.6279069 L34.3525245,48.6279069 L34.3525245,48.6279069 L34.3525245,48.6279069 L34.3525245,48.6279069 Z" fill="#FFFFFF"></path>
                                <path d="M21.8543499,48.2093023 C22.3431054,48.0697674 22.8318609,47.8604651 22.7620386,46.9534884 C22.6922164,46.1860465 21.9939944,45.9069767 21.2957723,45.8372093 L19.131284,45.8372093 L19.131284,50.3720931 L20.1087949,50.3720931 L20.1087949,48.4883721 L21.2259501,48.4883721 C21.9939944,48.5581395 21.7147056,50.3720931 21.9241722,50.3720931 L22.8318609,50.3720931 C22.552572,49.6744186 22.9715052,48.4186047 21.8543499,48.2093023 L21.8543499,48.2093023 L21.8543499,48.2093023 L21.8543499,48.2093023 Z M21.4354167,47.7209302 L20.1786171,47.7209302 L20.1786171,46.5348837 L21.3655946,46.5348837 C21.6448833,46.5348837 21.8543499,46.744186 21.9241722,47.0930233 C21.8543499,47.4418605 21.7147056,47.7209302 21.4354167,47.7209302 L21.4354167,47.7209302 L21.4354167,47.7209302 L21.4354167,47.7209302 Z" fill="#FFFFFF"></path>
                                <path d="M5.79524296,58.5348837 L4.25915446,54 L5.23666533,54 C5.58577635,55.1162791 5.86506517,56.4418605 6.21417619,57.4186047 C6.56328721,56.4418605 6.91239824,55.1860465 7.19168705,54.0697674 L8.16919791,54.0697674 L6.63310941,58.6744186 L5.79524296,58.6744186 L5.79524296,58.5348837 L5.79524296,58.5348837 L5.79524296,58.5348837 Z" fill="#FFFFFF"></path>
                                <polygon fill="#FFFFFF" points="13.9644409 55.6744186 11.8697747 55.6744186 11.8697747 54.6976744 14.3135519 54.6976744 14.3135519 53.9302326 10.9620861 53.9302326 10.9620861 58.5348837 14.3135519 58.5348837 14.3135519 57.7674418 11.8697747 57.7674418 11.8697747 56.5116279 13.9644409 56.5116279"></polygon>
                                <polygon fill="#FFFFFF" points="25.4851046 53.9302326 25.4851046 58.5348837 24.5774159 58.5348837 24.5774159 53.9302326"></polygon>
                                <polygon fill="#FFFFFF" points="28.1383484 54.7674418 28.1383484 54 31.8389252 54 31.8389252 54.7674418 30.5123033 54.7674418 30.5123033 58.5348837 29.5347925 58.5348837 29.5347925 54.7674418"></polygon>
                                <path d="M36.3075463,53.9302326 L35.3300354,53.9302326 L33.7241247,58.4651163 L34.6318134,58.4651163 L34.9809244,57.4883721 L36.6566573,57.4883721 L37.0057683,58.4651163 L37.913457,58.4651163 L36.3075463,53.9302326 L36.3075463,53.9302326 L36.3075463,53.9302326 L36.3075463,53.9302326 Z M35.190391,56.7906977 L35.7489687,54.9069767 L35.7489687,54.9069767 L35.7489687,54.9069767 L35.7489687,54.9069767 L35.7489687,54.9069767 L36.3075463,56.7906977 L35.190391,56.7906977 L35.190391,56.7906977 L35.190391,56.7906977 L35.190391,56.7906977 Z" fill="#FFFFFF"></path>
                                <path d="M20.2484392,56.3023256 C20.7371947,56.1627907 21.2259501,55.9534884 21.1561279,55.0465116 C21.0863057,54.2790698 20.3880837,54 19.6898616,53.9302326 L17.5253733,53.9302326 L17.5253733,58.4651163 L18.5028842,58.4651163 L18.5028842,56.5813953 L19.6200394,56.5813953 C20.3880837,56.6511628 20.1087949,58.4651163 20.3182615,58.4651163 L21.2259501,58.4651163 C20.8768391,57.7674418 21.2957723,56.5116279 20.2484392,56.3023256 L20.2484392,56.3023256 L20.2484392,56.3023256 L20.2484392,56.3023256 Z M19.7596839,55.8837209 L18.5028842,55.8837209 L18.5028842,54.6976744 L19.6898616,54.6976744 C19.9691505,54.6976744 20.1786171,54.9069767 20.1786171,55.255814 C20.1786171,55.6046511 20.0389726,55.8139535 19.7596839,55.8837209 L19.7596839,55.8837209 L19.7596839,55.8837209 L19.7596839,55.8837209 Z" fill="#FFFFFF"></path>
                                <path d="M40.0779453,57.0697674 C40.0779453,57.7674418 40.636523,58.6046511 42.032967,58.6046511 C43.1501223,58.6046511 43.9879887,58.1162791 43.9879887,57.0697674 C43.9879887,55.5348837 41.1951006,55.9534884 41.1951006,55.1162791 C41.1951006,54.7674418 41.4743894,54.4883721 42.1027893,54.4883721 C42.7311891,54.4883721 42.9406557,54.8372093 42.9406557,55.1860465 L43.8483443,55.1860465 C43.8483443,54.9069767 43.7087,53.7906977 42.032967,53.7906977 C40.8459896,53.7906977 40.2874119,54.4883721 40.2874119,55.3255814 C40.2874119,56.8604651 43.0104779,56.3023256 43.0104779,57.2790698 C43.0104779,57.8372093 42.4519003,57.9069767 41.9631448,57.9069767 C41.334745,57.9069767 40.985634,57.4186047 40.985634,57.0697674 L40.0779453,57.0697674 L40.0779453,57.0697674 L40.0779453,57.0697674 L40.0779453,57.0697674 Z" fill="#FFFFFF"></path>
                            </g>
                        </g>
                    </g>
                </g>
            </g>
        </g>
    </g>
</svg>