<svg width="28px" height="35px" viewBox="0 0 28 35" version="1.1" xmlns="http://www.w3.org/2000/svg" xmlns:xlink="http://www.w3.org/1999/xlink"><g id="padnote" fill="#000000"><path d="M21.0693069,0 L7.45742574,0 C6.81980198,0 6.32079208,0.5 6.32079208,1.13888889 L6.32079208,2.72222222 L1.3029703,2.72222222 C0.665346535,2.72222222 0.166336634,3.22222222 0.166336634,3.86111111 L0.166336634,33.8611111 C0.166336634,34.5 0.665346535,35 1.3029703,35 L26.6970297,35 C27.3346535,35 27.8336634,34.5 27.8336634,33.8611111 L27.8336634,3.86111111 C27.8336634,3.22222222 27.3346535,2.72222222 26.6970297,2.72222222 L22.2059406,2.72222222 L22.2059406,1.13888889 C22.2059406,0.5 21.7069307,0 21.0693069,0 L21.0693069,0 Z M8.59405941,3.86111111 L8.59405941,2.27777778 L19.9326733,2.27777778 L19.9326733,3.86111111 L19.9326733,5.86111111 L8.59405941,5.86111111 L8.59405941,3.86111111 L8.59405941,3.86111111 Z M25.560396,5 L25.560396,32.7222222 L2.43960396,32.7222222 L2.43960396,5 L6.32079208,5 L6.32079208,7 C6.32079208,7.63888889 6.81980198,8.13888889 7.45742574,8.13888889 L21.0693069,8.13888889 C21.7069307,8.13888889 22.2059406,7.63888889 22.2059406,7 L22.2059406,5 L25.560396,5 L25.560396,5 Z" id="Shape"></path><path d="M22.4554455,19.7222222 L6.07128713,19.7222222 C5.43366337,19.7222222 4.93465347,20.2222222 4.93465347,20.8611111 C4.93465347,21.5 5.43366337,22 6.07128713,22 L22.4554455,22 C23.0930693,22 23.5920792,21.5 23.5920792,20.8611111 C23.5920792,20.2222222 23.0930693,19.7222222 22.4554455,19.7222222 L22.4554455,19.7222222 Z" id="Shape"></path><path d="M14.2772277,25.2222222 L6.07128713,25.2222222 C5.43366337,25.2222222 4.93465347,25.7222222 4.93465347,26.3611111 C4.93465347,27 5.43366337,27.5 6.07128713,27.5 L14.249505,27.5 C14.8871287,27.5 15.3861386,27 15.3861386,26.3611111 C15.3861386,25.7222222 14.8871287,25.2222222 14.2772277,25.2222222 L14.2772277,25.2222222 Z" id="Shape"></path><path d="M4.93465347,15.3333333 C4.93465347,15.9722222 5.43366337,16.4722222 6.07128713,16.4722222 L22.4554455,16.4722222 C23.0930693,16.4722222 23.5920792,15.9722222 23.5920792,15.3333333 C23.5920792,14.6944444 23.0930693,14.1944444 22.4554455,14.1944444 L6.07128713,14.1944444 C5.43366337,14.1944444 4.93465347,14.7222222 4.93465347,15.3333333 L4.93465347,15.3333333 Z" id="Shape"></path></g></svg>