<svg width="17px" height="17px" viewBox="0 0 17 17" version="1.1" xmlns="http://www.w3.org/2000/svg" xmlns:xlink="http://www.w3.org/1999/xlink"><g id="check-off" transform="translate(1.000000, 1.000000)" stroke="#000000" stroke-width="0.5" fill="#000000">
<path d="M7.5,14.9230769 C11.5897436,14.9230769 14.9230769,11.5897436 14.9230769,7.5 C14.9230769,3.41025641 11.5897436,0.0769230767 7.5,0.0769230767 C3.41025641,0.0769230767 0.0769230767,3.41025641 0.0769230767,7.5 C0.0769230767,11.5897436 3.41025641,14.9230769 7.5,14.9230769 L7.5,14.9230769 L7.5,14.9230769 Z M7.5,1.11538461 C11.0128205,1.11538461 13.8846154,3.97435897 13.8846154,7.5 C13.8846154,11.025641 11.025641,13.8846154 7.5,13.8846154 C3.97435897,13.8846154 1.11538461,11.0128205 1.11538461,7.5 C1.11538461,3.98717949 3.98717949,1.11538461 7.5,1.11538461 L7.5,1.11538461 L7.5,1.11538461 Z" id="Shape"></path></g></svg>