<svg width="35px" height="35px" viewBox="0 0 35 35" version="1.1" xmlns="http://www.w3.org/2000/svg" xmlns:xlink="http://www.w3.org/1999/xlink"><g id="volume" fill="#000000"><path d="M1.34615385,26.8034188 L9.42307692,26.8034188 C10.1111111,26.8034188 10.6495726,26.2649573 10.6495726,25.5769231 L10.6495726,25.1581197 L24.8888889,34.6410256 C25.0982906,34.7905983 25.3376068,34.8504274 25.5769231,34.8504274 C25.7863248,34.8504274 25.965812,34.7905983 26.1452991,34.7008547 C26.534188,34.491453 26.8034188,34.0726496 26.8034188,33.6239316 L26.8034188,1.34615385 C26.8034188,0.897435897 26.5641026,0.478632479 26.1452991,0.269230769 C25.7564103,0.0598290598 25.2777778,0.0897435897 24.8888889,0.329059829 L10.6495726,9.84188034 L10.6495726,9.42307692 C10.6495726,8.73504274 10.1111111,8.1965812 9.42307692,8.1965812 L1.34615385,8.1965812 C0.658119658,8.1965812 0.11965812,8.73504274 0.11965812,9.42307692 L0.11965812,25.5769231 C0.11965812,26.2350427 0.688034188,26.8034188 1.34615385,26.8034188 L1.34615385,26.8034188 Z M10.6495726,12.7735043 L24.3504274,3.64957265 L24.3504274,31.3803419 L10.6495726,22.2264957 L10.6495726,12.7735043 L10.6495726,12.7735043 Z M2.57264957,10.6495726 L8.1965812,10.6495726 L8.1965812,12.1153846 L8.1965812,22.8846154 L8.1965812,24.3504274 L2.57264957,24.3504274 L2.57264957,10.6495726 L2.57264957,10.6495726 Z" id="Shape"></path><path d="M33.6538462,8.1965812 C32.965812,8.1965812 32.4273504,8.73504274 32.4273504,9.42307692 L32.4273504,25.5769231 C32.4273504,26.2649573 32.965812,26.8034188 33.6538462,26.8034188 C34.3418803,26.8034188 34.8803419,26.2649573 34.8803419,25.5769231 L34.8803419,9.42307692 C34.8803419,8.76495726 34.3119658,8.1965812 33.6538462,8.1965812 L33.6538462,8.1965812 Z" id="Shape"></path></g></svg>