<svg width="35px" height="35px" viewBox="0 0 35 35" version="1.1" xmlns="http://www.w3.org/2000/svg" xmlns:xlink="http://www.w3.org/1999/xlink"><g id="check-on" fill="#000000"><path d="M17.5,34.8205128 C27.042735,34.8205128 34.8205128,27.042735 34.8205128,17.5 C34.8205128,7.95726496 27.042735,0.179487179 17.5,0.179487179 C7.95726496,0.179487179 0.179487179,7.95726496 0.179487179,17.5 C0.179487179,27.042735 7.95726496,34.8205128 17.5,34.8205128 L17.5,34.8205128 Z M17.5,2.6025641 C25.6965812,2.6025641 32.3974359,9.27350427 32.3974359,17.5 C32.3974359,25.7264957 25.7264957,32.3974359 17.5,32.3974359 C9.27350427,32.3974359 2.6025641,25.6965812 2.6025641,17.5 C2.6025641,9.3034188 9.3034188,2.6025641 17.5,2.6025641 L17.5,2.6025641 Z" id="Shape"></path><path d="M9.8810302,19.4873616 C9.45108044,19.0574118 8.75241208,19.0574118 8.32246232,19.4873616 C7.89251256,19.9173113 7.89251256,20.6159797 8.32246232,21.0459294 L13.4012439,26.124711 C13.6162187,26.3396859 13.8849373,26.4471733 14.1805278,26.4471733 L14.2342715,26.4471733 C14.529862,26.4203014 14.8254524,26.2859421 15.0404273,26.0440954 L27.7508171,10.8077508 C28.1270231,10.3509292 28.0732794,9.65226082 27.6164578,9.24918292 C27.1596362,8.87297688 26.4609678,8.9267206 26.0578899,9.38354222 L14.0999122,23.7062436 L9.8810302,19.4873616 L9.8810302,19.4873616 Z" id="Shape"></path></g></svg>