<svg id="Capa_1" data-name="Capa 1" xmlns="http://www.w3.org/2000/svg" width="42.77" height="57.22" viewBox="0 0 42.77 57.22"><defs><style>.cls-1{fill:#0088ce;}</style></defs><title>grafico</title><path class="cls-1" d="M7.45,55.86a2.81,2.81,0,0,1-1.37,1A5.93,5.93,0,0,1,4,57.21a3.88,3.88,0,0,1-2.08-.56,3.73,3.73,0,0,1-1.4-1.59A5.37,5.37,0,0,1,0,52.71V51.43a4.81,4.81,0,0,1,1-3.27A3.54,3.54,0,0,1,3.81,47a3.73,3.73,0,0,1,2.47.78A3.23,3.23,0,0,1,7.39,49.9H6.56a2.58,2.58,0,0,0-.89-1.66,2.87,2.87,0,0,0-1.85-.57,2.71,2.71,0,0,0-2.21,1,4.3,4.3,0,0,0-.81,2.8v1.18a4.92,4.92,0,0,0,.39,2A3.06,3.06,0,0,0,2.3,56,2.93,2.93,0,0,0,4,56.48a4.63,4.63,0,0,0,1.87-.34,2,2,0,0,0,.75-.53V53.06H3.94v-.71H7.45Z" transform="translate(0.01)"/><path class="cls-1" d="M13.07,50.35a3,3,0,0,0-.55,0,2,2,0,0,0-1.3.43A2.35,2.35,0,0,0,10.46,52v5H9.65v-7.4h.8v1.18a2.18,2.18,0,0,1,2.11-1.33,1.34,1.34,0,0,1,.54.09Z" transform="translate(0.01)"/><path class="cls-1" d="M18.75,57.06a3.87,3.87,0,0,1-.19-1,2.84,2.84,0,0,1-1.1.86,3.36,3.36,0,0,1-1.41.3,2.48,2.48,0,0,1-1.73-.59,1.94,1.94,0,0,1-.66-1.5,2,2,0,0,1,.9-1.71,4.32,4.32,0,0,1,2.51-.63h1.49V52a1.62,1.62,0,0,0-.49-1.25,2,2,0,0,0-1.43-.45,2.23,2.23,0,0,0-1.42.44,1.3,1.3,0,0,0-.56,1h-.82a1.9,1.9,0,0,1,.82-1.53,3.15,3.15,0,0,1,2-.65,2.88,2.88,0,0,1,2,.62,2.22,2.22,0,0,1,.73,1.73v3.5A4.34,4.34,0,0,0,19.62,57v0Zm-2.57-.59a2.74,2.74,0,0,0,1.47-.4A2.33,2.33,0,0,0,18.56,55V53.37H17.13a3.66,3.66,0,0,0-1.91.45,1.34,1.34,0,0,0-.66,1.24,1.32,1.32,0,0,0,.46,1,1.74,1.74,0,0,0,1.16.4Zm1.61-9.83h1l-1.58,1.91h-.72Z" transform="translate(0.01)"/><path class="cls-1" d="M22.17,57.06V50.32H20.95v-.67h1.22v-.9A2.43,2.43,0,0,1,22.75,47a2.12,2.12,0,0,1,1.61-.61,3.14,3.14,0,0,1,.87.12l-.06.68a3.2,3.2,0,0,0-.75-.08,1.34,1.34,0,0,0-1,.42,1.74,1.74,0,0,0-.38,1.2v.92h1.76v.67H23v6.73Z" transform="translate(0.01)"/><path class="cls-1" d="M26.17,47.51a.54.54,0,0,1,.15-.39.53.53,0,0,1,.41-.16.55.55,0,0,1,.41.16.54.54,0,0,1,.15.39.53.53,0,0,1-.15.39.55.55,0,0,1-.41.16.53.53,0,0,1-.56-.5s0,0,0,0Zm1,9.53h-.82v-7.4h.82Z" transform="translate(0.01)"/><path class="cls-1" d="M32.09,56.49A2.16,2.16,0,0,0,33.56,56a1.7,1.7,0,0,0,.63-1.25H35A2.33,2.33,0,0,1,34.56,56a2.66,2.66,0,0,1-1,.87,3.11,3.11,0,0,1-1.38.31,2.86,2.86,0,0,1-2.31-1A4.09,4.09,0,0,1,29,53.46v-.25a4.61,4.61,0,0,1,.38-1.93,2.91,2.91,0,0,1,2.77-1.76,2.85,2.85,0,0,1,2,.72A2.65,2.65,0,0,1,35,52.15h-.79A2.13,2.13,0,0,0,30.44,51a3.62,3.62,0,0,0-.61,2.24v.24a3.54,3.54,0,0,0,.61,2.21A2.06,2.06,0,0,0,32.09,56.49Z" transform="translate(0.01)"/><path class="cls-1" d="M36.12,53.24a4.36,4.36,0,0,1,.44-1.92,3.1,3.1,0,0,1,2.88-1.8,3,3,0,0,1,2.39,1,4,4,0,0,1,.92,2.75v.17a4.38,4.38,0,0,1-.41,1.93,3.09,3.09,0,0,1-1.17,1.32,3.2,3.2,0,0,1-1.72.46,3,3,0,0,1-2.39-1,4,4,0,0,1-.92-2.75Zm.82.23a3.36,3.36,0,0,0,.69,2.18,2.33,2.33,0,0,0,3.6,0,3.47,3.47,0,0,0,.69-2.25v-.16a3.77,3.77,0,0,0-.36-1.55,2.52,2.52,0,0,0-.88-1.09,2.25,2.25,0,0,0-1.3-.39,2.19,2.19,0,0,0-1.78.86,3.47,3.47,0,0,0-.69,2.25Z" transform="translate(0.01)"/><path class="cls-1" d="M38,0H26.45a1.23,1.23,0,0,0,0,2.45H35L20.25,17.21l-6.13-6.15a1.24,1.24,0,0,0-1.75,0l-7,7A1.23,1.23,0,0,0,7.11,19.8l6.13-6.13,6.13,6.13a1.23,1.23,0,0,0,1.74,0h0L36.77,4.16v8.62a1.23,1.23,0,0,0,2.45,0V1.23A1.23,1.23,0,0,0,38,0Z" transform="translate(0.01)"/><path class="cls-1" d="M4.23,21.45v13a.5.5,0,0,0,.5.5H6.18a.5.5,0,0,0,.5-.5V22.14A3.24,3.24,0,0,1,4.23,21.45Z" transform="translate(0.01)"/><path class="cls-1" d="M9.65,34.5a.5.5,0,0,0,.5.5h1.41a.5.5,0,0,0,.5-.5V17.66L9.61,20.11Z" transform="translate(0.01)"/><path class="cls-1" d="M14.32,34.5a.5.5,0,0,0,.5.5h1.45a.5.5,0,0,0,.5-.5V20.11l-2.45-2.45Z" transform="translate(0.01)"/><path class="cls-1" d="M22.56,21.22a7.15,7.15,0,0,1-.57.45,3.61,3.61,0,0,1-1.47.48V34.5a.5.5,0,0,0,.5.5h1.45a.5.5,0,0,0,.5-.5V20.8Z" transform="translate(0.01)"/><path class="cls-1" d="M25.92,17.83V34.5a.5.5,0,0,0,.5.5h1.45a.5.5,0,0,0,.5-.5V15.38Z" transform="translate(0.01)"/><path class="cls-1" d="M31.35,12.41V34.5a.5.5,0,0,0,.5.5H33.3a.5.5,0,0,0,.5-.5V9.95Z" transform="translate(0.01)"/><path class="cls-1" d="M36.77,15.76V34.5a.5.5,0,0,0,.5.5h1.45a.5.5,0,0,0,.5-.5V15.76A3.31,3.31,0,0,1,36.77,15.76Z" transform="translate(0.01)"/></svg>