<svg width="21px" height="34px" viewBox="0 0 21 34" version="1.1" xmlns="http://www.w3.org/2000/svg" xmlns:xlink="http://www.w3.org/1999/xlink"><path d="M8.25514403,29.0562414 L8.25514403,34 L12.1728395,34 L12.1728395,29.0562414 L8.25514403,29.0562414 Z M0,10.9602195 L2.9382716,10.9602195 C2.90717863,9.74759339 3.04709492,8.62826302 3.35802469,7.60219479 C3.66895446,6.57612656 4.13534211,5.68221689 4.75720165,4.92043896 C5.37906118,4.15866103 6.17192019,3.56013021 7.13580247,3.12482853 C8.09968475,2.68952686 9.20346886,2.47187929 10.4471879,2.47187929 C11.3488843,2.47187929 12.2039283,2.62734184 13.0123457,2.9382716 C13.8207631,3.24920137 14.5281177,3.67672339 15.1344307,4.22085048 C15.7407438,4.76497757 16.2226777,5.42569342 16.5802469,6.20301783 C16.9378161,6.98034225 17.1165981,7.83538628 17.1165981,8.76817558 C17.1165981,9.98080167 16.8289924,11.0845858 16.2537723,12.079561 C15.6785522,13.0745363 14.9556514,13.9762191 14.085048,14.7846365 C13.0900728,15.6863328 12.2428019,16.4947381 11.5432099,17.2098765 C10.8436179,17.925015 10.2839527,18.6712353 9.86419753,19.4485597 C9.44444235,20.2258841 9.14129037,21.0964744 8.95473251,22.0603567 C8.76817465,23.0242389 8.69044337,24.2213006 8.72153635,25.6515775 L11.659808,25.6515775 C11.6909009,24.2213006 11.753086,23.1252896 11.8463649,22.3635117 C11.9396438,21.6017337 12.1261989,20.9565641 12.4060357,20.4279835 C12.6858725,19.8994029 13.1133945,19.3630571 13.6886145,18.81893 C14.2638346,18.2748029 15.0333742,17.5208096 15.9972565,16.5569273 C17.1787896,15.4375801 18.1504306,14.271611 18.9122085,13.0589849 C19.6739864,11.8463588 20.0548697,10.3694646 20.0548697,8.62825789 C20.0548697,7.26016691 19.8061296,6.04755901 19.308642,4.99039781 C18.8111543,3.9332366 18.1271191,3.0315538 17.2565158,2.28532236 C16.3859124,1.53909092 15.383179,0.971652606 14.2482853,0.582990398 C13.1133917,0.194328189 11.8930106,0 10.5871056,0 C8.90808488,0 7.41564439,0.264286337 6.10973937,0.792866941 C4.80383435,1.32144754 3.69227711,2.05989466 2.77503429,3.00823045 C1.85779148,3.95656624 1.16598313,5.10698912 0.699588477,6.45953361 C0.233193827,7.81207809 0,9.31229171 0,10.9602195 L0,10.9602195 Z" id="help" fill="#000000"></path></svg>