<?xml version="1.0" encoding="utf-8"?>
<!-- Generator: Adobe Illustrator 20.1.0, SVG Export Plug-In . SVG Version: 6.00 Build 0)  -->
<svg version="1.1" id="Capa_1" xmlns="http://www.w3.org/2000/svg" xmlns:xlink="http://www.w3.org/1999/xlink" x="0px" y="0px"
	 viewBox="0 0 316 110" style="enable-background:new 0 0 316 110;" xml:space="preserve">
<style type="text/css">
	.st0{fill:#FFFFFF;}
	.st1{enable-background:new    ;}
</style>
<title>logo_Oney</title>
<g>
	<path class="st0" d="M212.7,40.1c1.5,6.6,1.5,11.4-5.2,15.2c-3.2,1.8-4.2,7.5-6.2,11.5c4.5,1.2,9.2,4,13.4,3.4
		c10.8-1.6,12.1-4.4,11.9-18.3c-0.1-3.8-0.8-7.5-1.3-11.8c4.3,0,8.8,0,14.5,0c0,6.8,0.3,13.5-0.1,20.2c-0.5,7.9,2.1,11.5,10.9,8.1
		c0.2,0.8,0.4,1.7,0.6,2.5c-4.1,2.4-8.3,6.8-12.4,6.7c-4.6-0.1-9.1-4.1-15-7.1c-17.6,11.4-25.3,11.6-35.4-1
		c-11.4,7.1-23,14.4-35.9,3.2c-14.2,7.4-15.2,7.5-25.9,0.3c-8,4.6-16.2,7.6-24.3-1.2C94.4,77.7,86.1,82,78,73.4
		c-4.1,1.5-7.6,3.4-11.2,4.1c-7.8,1.5-13.3-3.2-13.5-11c-0.2-8.7,0-17.5,0-26.7c3.2,0,7.2,0,10.8,0c6.5,9.6-6,25.3,12.1,32.7
		c0-21.4,0-40.9,0-61.1c5.3,0,9.5,0,14.2,0c0.3,3,0.5,5.8,0.9,9.9c40.1,0,80.3,0,121.2,0c0,4.8,0,8.4,0,13.2c-40.2,0-80.5,0-121.6,0
		c0,10.8-0.4,20.4,0.3,30c0.1,2.1,3.8,4,5.9,6c1.4-2.2,3.9-4.3,4-6.6c0.5-7.8,0.2-15.7,0.2-24.1c3.5,0,7.8,0,13.7,0
		c0,7.5-0.1,14.7,0.1,22c0.1,4.5,0.7,9.9,6.8,8.9c2-0.3,4.2-5.5,4.5-8.5c0.7-7.2,0.2-14.6,0.2-22.3c3.6,0,8.2,0,13.9,0
		c0,6.8-0.2,13.2,0.1,19.6c0.1,2.9,0.6,5.9,1.8,8.4c0.7,1.4,3.4,2.6,5,2.4c1.3-0.2,2.8-2.5,3.4-4.1c1.3-3.9,2-7.9,3-12.1
		c-2.6-0.3-5.1-0.7-8.2-1.1c0-4.3,0-8.3,0-13.5c8.4,0,16.6-0.3,24.7,0.2c2.2,0.1,6.1,2.4,6.2,3.7c0.1,3-0.9,7.3-3.1,8.7
		c-5.3,3.6-12.4,6.8-9.2,13.8c3.6,8,12.3,5.5,17.9,2.4c4.7-2.5,7.7-8.2,12.8-14c-5.8-0.6-8.6-0.9-11.9-1.3c0-4.2,0-8.3,0-13
		C192.8,40.1,202.4,40.1,212.7,40.1z"/>
	<path class="st0" d="M53.8,21.8c4.2,0,7.6,0,11.7,0c0,3.8,0,7.5,0,11.8c-3.5,0-7.3,0-11.7,0C53.8,29.9,53.8,26.3,53.8,21.8z"/>
	<path class="st0" d="M239.5,22.2c0,4.2,0,7.6,0,11.6c-4,0-7.6,0-11.9,0c0-3.6,0-7.3,0-11.6C231.4,22.2,235.5,22.2,239.5,22.2z"/>
</g>
<g class="st1">
	<path class="st0" d="M66.8,100.3v3.2c-1.1,0.6-2,1-2.8,1.2s-1.6,0.3-2.5,0.3c-1.2,0-2.4-0.2-3.4-0.6c-0.8-0.3-1.5-0.6-2-1.1
		c-0.5-0.4-0.9-1.1-1.3-1.9s-0.6-1.8-0.6-2.8V97c0-1.6,0.5-3,1.5-4.3c1.3-1.7,3.1-2.6,5.4-2.6c0.7,0,1.3,0.1,1.9,0.2
		c0.6,0.1,1.2,0.3,1.7,0.6c0.3-0.3,0.6-0.4,0.9-0.4c0.4,0,0.6,0.1,0.9,0.4c0.2,0.2,0.3,0.7,0.3,1.2v1.6c0,0.6-0.1,1-0.3,1.2
		c-0.2,0.2-0.5,0.4-0.9,0.4c-0.3,0-0.5-0.1-0.7-0.3c-0.2-0.1-0.3-0.4-0.4-0.8c-0.1-0.4-0.2-0.7-0.4-0.8c-0.2-0.2-0.6-0.4-1.1-0.6
		c-0.5-0.2-1.1-0.3-1.8-0.3c-1,0-1.8,0.2-2.5,0.6c-0.5,0.3-1,0.8-1.4,1.5c-0.4,0.7-0.6,1.5-0.6,2.4v1.7c0,1.3,0.4,2.3,1.1,3
		c0.8,0.7,1.9,1,3.6,1c1.1,0,2.1-0.2,3-0.6v-1.7h-2.5c-0.6,0-1-0.1-1.2-0.3c-0.2-0.2-0.4-0.5-0.4-0.9s0.1-0.7,0.4-0.9
		c0.2-0.2,0.7-0.3,1.2-0.3l4.3,0c0.6,0,1,0.1,1.2,0.3s0.4,0.5,0.4,0.9c0,0.3-0.1,0.5-0.3,0.7C67.4,100.1,67.1,100.2,66.8,100.3z"/>
	<path class="st0" d="M102.7,99.3v3h0.9c0.6,0,1,0.1,1.2,0.3c0.2,0.2,0.4,0.5,0.4,0.9c0,0.4-0.1,0.6-0.4,0.9
		c-0.2,0.2-0.7,0.3-1.2,0.3h-3.7c-0.6,0-1-0.1-1.2-0.3s-0.4-0.5-0.4-0.9c0-0.4,0.1-0.6,0.4-0.9c0.3-0.2,0.7-0.3,1.2-0.3h0.4v-9.5
		h-0.4c-0.6,0-1-0.1-1.2-0.3c-0.2-0.2-0.4-0.5-0.4-0.9s0.1-0.7,0.4-0.9s0.7-0.3,1.2-0.3l5.5,0c1.7,0,3,0.4,4,1.3
		c0.9,0.8,1.4,1.9,1.4,3.1c0,0.8-0.2,1.4-0.7,2.1s-1.1,1.2-2,1.6c0.5,0.4,1.1,1,1.6,1.7c0.4,0.4,0.8,1.1,1.5,2.1
		c0.6,0,1,0.1,1.2,0.2c0.4,0.2,0.5,0.6,0.5,1c0,0.4-0.1,0.6-0.4,0.9c-0.2,0.2-0.7,0.3-1.2,0.3h-1.4c-2-3-3.6-4.8-4.9-5.5H102.7z
		 M102.7,96.9h1.9c0.7,0,1.3-0.1,1.9-0.3c0.7-0.3,1.2-0.6,1.5-0.9s0.4-0.6,0.4-0.9c0-0.5-0.2-0.9-0.7-1.3s-1.2-0.6-2.1-0.6h-2.8
		V96.9z"/>
	<path class="st0" d="M156.4,97.6c0,2.1-0.7,3.9-2,5.4c-1.4,1.4-2.9,2.1-4.7,2.1c-1.6,0-3.1-0.6-4.4-1.8c-1.6-1.5-2.4-3.4-2.4-5.7
		c0-2.3,0.8-4.3,2.4-5.7c1.3-1.2,2.8-1.8,4.4-1.8c1.8,0,3.4,0.7,4.7,2.1C155.7,93.7,156.4,95.5,156.4,97.6z M154,97.6
		c0-1.5-0.4-2.7-1.3-3.6c-0.9-1-1.9-1.4-3-1.4c-1.1,0-2.1,0.5-3,1.5c-0.9,1-1.3,2.2-1.3,3.6c0,1.5,0.4,2.7,1.3,3.6
		c0.9,1,1.9,1.4,3,1.4c1.1,0,2.1-0.5,3-1.4C153.5,100.3,154,99.1,154,97.6z"/>
	<path class="st0" d="M199.6,92.9v6.8c0,1.5-0.5,2.8-1.6,3.8c-1.1,1-2.4,1.6-3.9,1.6c-0.7,0-1.4-0.1-2.1-0.4
		c-0.7-0.3-1.2-0.7-1.8-1.2s-0.9-1-1.2-1.6c-0.3-0.6-0.4-1.3-0.4-2.2v-6.8c-0.5,0-0.9-0.1-1.1-0.3c-0.2-0.2-0.4-0.5-0.4-0.9
		c0-0.4,0.1-0.7,0.4-0.9c0.2-0.2,0.7-0.3,1.2-0.3l3.2,0c0.6,0,1,0.1,1.2,0.3c0.2,0.2,0.4,0.5,0.4,0.9s-0.1,0.7-0.4,0.9
		c-0.2,0.2-0.7,0.3-1.2,0.3H191v7.1c0,0.7,0.3,1.4,0.9,1.9s1.3,0.8,2.2,0.8c0.6,0,1.1-0.1,1.6-0.4c0.5-0.3,0.9-0.7,1.2-1.2
		c0.2-0.3,0.3-0.7,0.3-1.2v-7.1h-0.9c-0.6,0-1-0.1-1.2-0.3c-0.2-0.2-0.4-0.5-0.4-0.9s0.1-0.7,0.4-0.9c0.2-0.2,0.7-0.3,1.2-0.3l3.2,0
		c0.6,0,1,0.1,1.2,0.3c0.2,0.2,0.4,0.5,0.4,0.9c0,0.4-0.1,0.6-0.4,0.9C200.5,92.8,200.1,92.9,199.6,92.9z"/>
	<path class="st0" d="M237.1,99.8v2.5h2.4c0.6,0,1,0.1,1.2,0.3c0.2,0.2,0.4,0.5,0.4,0.9c0,0.4-0.1,0.6-0.4,0.9
		c-0.2,0.2-0.7,0.3-1.2,0.3h-5.2c-0.6,0-1-0.1-1.2-0.3c-0.2-0.2-0.4-0.5-0.4-0.9c0-0.4,0.1-0.6,0.4-0.9c0.3-0.2,0.7-0.3,1.2-0.3h0.4
		v-9.5h-0.4c-0.6,0-1-0.1-1.2-0.3c-0.2-0.2-0.4-0.5-0.4-0.9s0.1-0.7,0.4-0.9c0.2-0.2,0.7-0.3,1.2-0.3l5.6,0c1.6,0,2.9,0.4,3.9,1.3
		s1.4,2,1.4,3.3c0,0.7-0.2,1.4-0.5,2c-0.2,0.5-0.7,0.9-1.2,1.4c-0.6,0.5-1.2,0.8-1.7,1c-0.6,0.2-1.4,0.3-2.4,0.3H237.1z M237.1,97.4
		h2.2c1.1,0,1.9-0.2,2.5-0.7c0.6-0.5,0.9-1,0.9-1.7c0-0.6-0.2-1.1-0.7-1.5c-0.5-0.4-1.2-0.6-2.1-0.6h-2.8V97.4z"/>
</g>
</svg>
