<svg id="Capa_1" data-name="Capa 1" xmlns="http://www.w3.org/2000/svg" width="101.54" height="57.23" viewBox="0 0 101.54 57.23"><defs><style>.cls-1{fill:#b7b1a9;}</style></defs><title>+informacionHover</title><path class="cls-1" d="M1.11,47.06l3.67,8.78,3.69-8.78H9.59v10H8.75V52.71l.07-4.44L5.11,57.06H4.46L.77,48.32.84,52.7v4.36H0v-10Z" transform="translate(0 0.01)"/><path class="cls-1" d="M16.59,57.06a3.87,3.87,0,0,1-.16-1,2.84,2.84,0,0,1-1.1.86,3.36,3.36,0,0,1-1.41.3,2.48,2.48,0,0,1-1.73-.59,1.94,1.94,0,0,1-.66-1.57,2,2,0,0,1,.9-1.71,4.32,4.32,0,0,1,2.51-.63h1.49v-.84a1.62,1.62,0,0,0-.49-1.25,2,2,0,0,0-1.41-.43,2.23,2.23,0,0,0-1.42.44,1.3,1.3,0,0,0-.58,1.05h-.81a1.9,1.9,0,0,1,.81-1.53,3.15,3.15,0,0,1,2-.65,2.88,2.88,0,0,1,2,.62,2.22,2.22,0,0,1,.73,1.73v3.5A4.34,4.34,0,0,0,17.49,57v.09ZM14,56.46a2.74,2.74,0,0,0,1.51-.4A2.33,2.33,0,0,0,16.47,55V53.37H15a3.66,3.66,0,0,0-1.91.45,1.34,1.34,0,0,0-.69,1.24,1.32,1.32,0,0,0,.46,1A1.74,1.74,0,0,0,14,56.46Zm1.61-9.83h1l-1.58,1.9h-.72Z" transform="translate(0 0.01)"/><path class="cls-1" d="M23.85,55.16a1.17,1.17,0,0,0-.49-1,3.78,3.78,0,0,0-1.47-.58,6.6,6.6,0,0,1-1.53-.48,2,2,0,0,1-.81-.66,1.65,1.65,0,0,1-.26-.94A1.76,1.76,0,0,1,20,50.06a3,3,0,0,1,1.87-.57,3,3,0,0,1,2,.61,2,2,0,0,1,.75,1.6h-.82a1.33,1.33,0,0,0-.54-1.08,2.46,2.46,0,0,0-2.67-.07,1.11,1.11,0,0,0-.49.93,1,1,0,0,0,.41.86A4.32,4.32,0,0,0,22,52.9a7,7,0,0,1,1.61.54,2.09,2.09,0,0,1,.8.69,1.9,1.9,0,0,1-.5,2.47,3.22,3.22,0,0,1-2,.56,3.32,3.32,0,0,1-2.1-.62A1.93,1.93,0,0,1,19,55h.82a1.42,1.42,0,0,0,.6,1.12,2.48,2.48,0,0,0,1.47.4,2.32,2.32,0,0,0,1.38-.38A1.13,1.13,0,0,0,23.85,55.16Z" transform="translate(0 0.01)"/><path class="cls-1" d="M29.87,47.51a.55.55,0,0,1,.15-.39.54.54,0,0,1,.41-.16.55.55,0,0,1,.41.16.54.54,0,0,1,.15.39.53.53,0,0,1-.15.39.55.55,0,0,1-.41.16.53.53,0,0,1-.56-.5s0,0,0,0Zm1,9.53h-.82v-7.4h.82Z" transform="translate(0 0.01)"/><path class="cls-1" d="M33.83,49.65v1.26a2.93,2.93,0,0,1,1-1,2.69,2.69,0,0,1,1.37-.36,2.22,2.22,0,0,1,1.77.67,3,3,0,0,1,.59,2v4.84h-.81V52.18a2.26,2.26,0,0,0-.42-1.48A1.65,1.65,0,0,0,36,50.21a2.07,2.07,0,0,0-1.34.47A2.79,2.79,0,0,0,33.81,52v5.1H33v-7.4Z" transform="translate(0 0.01)"/><path class="cls-1" d="M41.33,57.06V50.32H40.11v-.67h1.22v-.9A2.43,2.43,0,0,1,41.91,47a2.12,2.12,0,0,1,1.62-.61,3.14,3.14,0,0,1,.87.12l-.06.68a3.19,3.19,0,0,0-.75-.08,1.34,1.34,0,0,0-1,.42,1.74,1.74,0,0,0-.38,1.2v.92h1.76v.67H42.15v6.73Z" transform="translate(0 0.01)"/><path class="cls-1" d="M44.93,53.24a4.35,4.35,0,0,1,.41-1.92,3.1,3.1,0,0,1,2.88-1.8,3,3,0,0,1,2.39,1,4,4,0,0,1,.92,2.77v.17a4.39,4.39,0,0,1-.41,1.93A3.09,3.09,0,0,1,50,56.71a3.2,3.2,0,0,1-1.72.46,3,3,0,0,1-2.39-1,4,4,0,0,1-.92-2.75Zm.82.23a3.36,3.36,0,0,0,.69,2.18,2.33,2.33,0,0,0,3.6,0,3.47,3.47,0,0,0,.69-2.25v-.16a3.77,3.77,0,0,0-.31-1.55,2.52,2.52,0,0,0-.89-1.09,2.25,2.25,0,0,0-1.3-.39,2.19,2.19,0,0,0-1.78.86,3.47,3.47,0,0,0-.69,2.25Z" transform="translate(0 0.01)"/><path class="cls-1" d="M56.64,50.35a3,3,0,0,0-.55,0,2,2,0,0,0-1.29.43A2.34,2.34,0,0,0,54,52v5h-.81v-7.4H54v1.18a2.18,2.18,0,0,1,2.08-1.31,1.34,1.34,0,0,1,.54.09Z" transform="translate(0 0.01)"/><path class="cls-1" d="M58.67,49.65v1.2a2.74,2.74,0,0,1,1-1A2.81,2.81,0,0,1,61,49.52,2.07,2.07,0,0,1,63.26,51a2.78,2.78,0,0,1,1.06-1.06,2.93,2.93,0,0,1,1.46-.37q2.38,0,2.43,2.6v4.93h-.82V52.17A2.2,2.2,0,0,0,67,50.7a1.74,1.74,0,0,0-1.37-.48,2.18,2.18,0,0,0-1.49.57,2,2,0,0,0-.68,1.36v4.91H62.6v-5a2,2,0,0,0-.45-1.42,1.78,1.78,0,0,0-1.36-.47,2.06,2.06,0,0,0-1.26.49A2.58,2.58,0,0,0,58.71,52v5.09h-.82v-7.4Z" transform="translate(0 0.01)"/><path class="cls-1" d="M75,57.06a3.85,3.85,0,0,1-.16-1,2.84,2.84,0,0,1-1.1.86,3.35,3.35,0,0,1-1.41.3,2.48,2.48,0,0,1-1.73-.59,1.94,1.94,0,0,1-.66-1.5,2,2,0,0,1,.9-1.71,4.32,4.32,0,0,1,2.51-.63h1.48V52a1.62,1.62,0,0,0-.49-1.25,2,2,0,0,0-1.42-.45,2.23,2.23,0,0,0-1.42.44,1.3,1.3,0,0,0-.56,1h-.81a1.9,1.9,0,0,1,.82-1.53,3.15,3.15,0,0,1,2-.65,2.88,2.88,0,0,1,2,.62,2.22,2.22,0,0,1,.73,1.73v3.5A4.34,4.34,0,0,0,75.91,57v0Zm-2.57-.6a2.74,2.74,0,0,0,1.47-.4A2.33,2.33,0,0,0,74.84,55V53.37H73.38a3.66,3.66,0,0,0-1.91.45,1.34,1.34,0,0,0-.7,1.24,1.32,1.32,0,0,0,.46,1A1.74,1.74,0,0,0,72.43,56.46Z" transform="translate(0 0.01)"/><path class="cls-1" d="M80.53,56.49A2.16,2.16,0,0,0,82,56a1.7,1.7,0,0,0,.63-1.25h.79A2.32,2.32,0,0,1,83,56a2.67,2.67,0,0,1-1,.87,3.12,3.12,0,0,1-1.38.31,2.85,2.85,0,0,1-2.31-1,4.09,4.09,0,0,1-.85-2.72V53.2a4.63,4.63,0,0,1,.38-1.93,2.9,2.9,0,0,1,2.73-1.76,2.85,2.85,0,0,1,2,.72,2.65,2.65,0,0,1,.84,1.91h-.74a2,2,0,0,0-2.07-1.93h0a2,2,0,0,0-1.72.8,3.62,3.62,0,0,0-.61,2.24v.24a3.54,3.54,0,0,0,.61,2.21A2.06,2.06,0,0,0,80.53,56.49Z" transform="translate(0 0.01)"/><path class="cls-1" d="M85,47.51a.53.53,0,0,1,.53-.55.55.55,0,0,1,.41.16.54.54,0,0,1,.15.39.53.53,0,0,1-.15.39.55.55,0,0,1-.41.16.49.49,0,0,1-.53-.55ZM86,57h-.82v-7.4H86Z" transform="translate(0 0.01)"/><path class="cls-1" d="M87.73,53.24a4.34,4.34,0,0,1,.41-1.92A3.1,3.1,0,0,1,91,49.52a3,3,0,0,1,2.39,1,4,4,0,0,1,.92,2.75v.17a4.38,4.38,0,0,1-.41,1.93,3.09,3.09,0,0,1-1.17,1.32,3.2,3.2,0,0,1-1.72.46,3,3,0,0,1-2.39-1,4,4,0,0,1-.92-2.75Zm.82.23a3.35,3.35,0,0,0,.69,2.18,2.33,2.33,0,0,0,3.6,0,3.48,3.48,0,0,0,.69-2.26v-.16a3.76,3.76,0,0,0-.31-1.55,2.52,2.52,0,0,0-.88-1.09A2.25,2.25,0,0,0,91,50.2a2.19,2.19,0,0,0-1.78.86,3.48,3.48,0,0,0-.73,2.25Zm3.29-6.84h1l-1.58,1.91h-.73Z" transform="translate(0 0.01)"/><path class="cls-1" d="M96.8,49.65v1.26a2.93,2.93,0,0,1,1-1,2.69,2.69,0,0,1,1.37-.36,2.22,2.22,0,0,1,1.77.67,3,3,0,0,1,.59,2v4.84h-.81V52.18a2.26,2.26,0,0,0-.42-1.48A1.65,1.65,0,0,0,99,50.21a2.07,2.07,0,0,0-1.34.47A2.79,2.79,0,0,0,96.78,52v5.1H96v-7.4Z" transform="translate(0 0.01)"/><path class="cls-1" d="M35.53,12.73a8.58,8.58,0,0,0,.77,1.82l-.93,1.17A1,1,0,0,0,35.44,17l1.6,1.6a1,1,0,0,0,1.27.07l1.16-.92a8.44,8.44,0,0,0,1.89.8l.17,1.52a1,1,0,0,0,1,.85h2.26a1,1,0,0,0,1-.85l.17-1.44a8.53,8.53,0,0,0,2-.82l1.12.89a1,1,0,0,0,1.27-.07l1.6-1.6a1,1,0,0,0,.07-1.27L51,14.64a8.33,8.33,0,0,0,.84-2l1.35-.16a1,1,0,0,0,.85-1V9.26a1,1,0,0,0-.85-1l-1.33-.16a8.39,8.39,0,0,0-.8-2l.82-1a1,1,0,0,0-.07-1.27L50.27,2.29A1,1,0,0,0,49,2.22L48,3a8.41,8.41,0,0,0-2.08-.87L45.77.84a1,1,0,0,0-1-.85H42.53a1,1,0,0,0-1,.85l-.15,1.3A8.39,8.39,0,0,0,39.3,3l-1-.82A1,1,0,0,0,37,2.29l-1.6,1.6a1,1,0,0,0-.07,1.27l.87,1.1a8.23,8.23,0,0,0-.79,2L34,8.42a1,1,0,0,0-.85,1v2.26a1,1,0,0,0,.85,1Zm8.18-6.11A3.73,3.73,0,1,1,40,10.35h0A3.74,3.74,0,0,1,43.71,6.62Z" transform="translate(0 0.01)"/><path class="cls-1" d="M65.79,13.25l-1.17-1a.93.93,0,0,0-1.24,0l-.65.61A6.71,6.71,0,0,0,61,12.3l-.18-.89a.94.94,0,0,0-1-.75l-1.53.13a.93.93,0,0,0-.85.9v.91a6.73,6.73,0,0,0-1.65.87L55,13a.93.93,0,0,0-1.23.18l-1,1.18a.93.93,0,0,0,0,1.24l.68.72a7,7,0,0,0-.5,1.65l-1,.2a.94.94,0,0,0-.75,1l.13,1.53a.93.93,0,0,0,.9.85h1A6.83,6.83,0,0,0,54,22.93l-.59.88a.93.93,0,0,0,.29,1.25l1.17,1a.93.93,0,0,0,1.24,0l.77-.72a6.73,6.73,0,0,0,1.58.51l.21,1a.94.94,0,0,0,1,.75l1.53-.13a.93.93,0,0,0,.85-.9v-1a6.89,6.89,0,0,0,1.58-.8l.85.56a.93.93,0,0,0,1.23-.18l1-1.17a.93.93,0,0,0,0-1.24L66,22.06a6.72,6.72,0,0,0,.55-1.68l.93-.19a.94.94,0,0,0,.75-1l-.13-1.53a.93.93,0,0,0-.9-.85h-.94a6.77,6.77,0,0,0-.78-1.54L66,14.5a.93.93,0,0,0-.17-1.23ZM60,22.06a3,3,0,1,1,2.75-3.25A3,3,0,0,1,60,22.06Z" transform="translate(0 0.01)"/><path class="cls-1" d="M41,26.57a.94.94,0,0,0-.85.93v1a.94.94,0,0,0,.82,1l.7.09a5.46,5.46,0,0,0,.5,1.22l-.45.56a.94.94,0,0,0,.06,1.26l.67.68a.94.94,0,0,0,1.26.09l.56-.43a5.52,5.52,0,0,0,1.26.55l.08.73a.94.94,0,0,0,.93.85h1a.94.94,0,0,0,1-.82l.09-.69A5.68,5.68,0,0,0,50,33l.53.43a.94.94,0,0,0,1.26-.06l.68-.67a.94.94,0,0,0,.09-1.26l-.4-.53a5.49,5.49,0,0,0,.57-1.32l.63-.06a.94.94,0,0,0,.85-.93v-1a.94.94,0,0,0-.82-1l-.61-.08a5.69,5.69,0,0,0-.52-1.32l.38-.47a.94.94,0,0,0-.09-1.26l-.67-.68a.94.94,0,0,0-1.33-.09h0l-.46.35a5.56,5.56,0,0,0-1.38-.6l-.06-.59a.94.94,0,0,0-.93-.85h-1a.94.94,0,0,0-1,.82l-.08.59a5.71,5.71,0,0,0-1.43.58l-.47-.39a.94.94,0,0,0-1.26.06l-.69.67a.94.94,0,0,0-.09,1.26l.4.52a5.53,5.53,0,0,0-.54,1.32Zm6.17-1.08a2.49,2.49,0,1,1-2.52,2.46,2.49,2.49,0,0,1,2.52-2.46Z" transform="translate(0 0.01)"/></svg>